<svg id="svg" xmlns="http://www.w3.org/2000/svg" xmlns:xlink="http://www.w3.org/1999/xlink" width="400" height="400" viewBox="0, 0, 400,400" version="1.1"><g id="svgg"><path id="path0" d="M201.953 111.571 C 177.459 113.118,155.657 125.630,144.073 144.786 C 142.424 147.512,142.287 147.630,138.477 149.570 C 100.982 168.668,98.146 225.465,132.919 260.899 C 180.629 309.517,265.574 290.221,286.822 225.939 C 305.901 168.219,261.093 107.836,201.953 111.571 M203.807 114.949 C 188.125 123.507,178.029 145.993,181.055 165.625 C 181.931 171.311,181.547 172.873,180.358 168.457 C 176.018 152.337,180.797 132.859,191.965 121.147 C 196.336 116.563,201.730 113.340,205.078 113.311 L 206.836 113.296 203.807 114.949 M213.852 113.525 C 214.274 113.687,213.657 114.049,212.023 114.599 C 195.218 120.263,182.863 141.753,183.691 163.878 C 183.964 171.163,183.474 171.539,182.432 164.844 C 179.075 143.271,193.489 117.224,210.742 113.687 C 212.845 113.256,213.115 113.242,213.852 113.525 M196.870 115.100 C 182.630 124.590,174.243 148.081,178.483 166.602 C 180.465 175.259,177.978 173.411,175.065 164.063 C 168.741 143.761,176.777 117.852,190.383 114.675 C 191.371 114.445,191.177 114.738,188.793 117.070 C 182.740 122.991,177.842 132.412,175.974 141.722 C 174.999 146.587,174.657 150.133,175.110 150.700 C 175.786 151.546,176.086 150.747,176.543 146.875 C 178.449 130.749,189.295 113.672,197.632 113.672 L 199.013 113.672 196.870 115.100 M221.419 114.795 C 221.776 115.021,221.361 115.271,220.102 115.588 C 202.583 119.999,186.328 143.525,186.328 164.469 C 186.328 167.967,185.844 169.355,185.399 167.132 C 182.487 152.574,190.799 130.681,202.805 121.287 C 209.116 116.350,218.634 113.030,221.419 114.795 M229.102 116.480 L 230.664 116.940 228.320 117.254 C 208.866 119.862,191.884 139.851,189.050 163.477 C 188.355 169.271,187.761 168.593,188.023 162.305 C 188.550 149.674,193.679 137.817,202.675 128.436 C 211.500 119.234,222.125 114.427,229.102 116.480 M182.223 118.066 C 170.407 132.539,167.890 152.234,175.624 169.706 C 178.036 175.156,177.257 175.728,174.532 170.508 C 168.811 159.548,167.497 145.277,171.115 133.380 C 173.073 126.941,178.033 118.881,180.910 117.463 C 182.964 116.451,183.384 116.644,182.223 118.066 M237.626 119.468 L 239.258 120.190 236.328 120.689 C 218.100 123.796,199.718 141.512,193.344 162.115 C 192.099 166.140,191.735 166.779,190.684 166.791 C 188.857 166.812,192.452 151.791,195.966 144.727 C 205.084 126.392,225.419 114.063,237.626 119.468 M175.022 121.881 C 165.896 135.128,165.307 155.687,173.580 172.161 C 175.189 175.364,175.395 176.172,174.602 176.172 C 173.636 176.172,168.078 166.070,166.259 161.007 C 160.745 145.664,164.646 126.547,174.575 120.250 C 177.085 118.659,177.129 118.822,175.022 121.881 M244.727 122.794 L 246.680 123.702 242.188 123.931 C 223.165 124.901,202.395 143.043,194.789 165.332 C 194.548 166.038,193.750 166.290,193.750 165.660 C 193.750 163.223,198.494 152.419,201.784 147.364 C 213.079 130.011,234.228 117.910,244.727 122.794 M168.367 124.316 C 159.253 137.925,160.510 157.943,171.523 174.570 C 173.536 177.609,173.746 178.129,172.949 178.118 C 171.176 178.092,164.526 167.005,162.292 160.349 C 157.888 147.232,160.186 129.931,167.087 124.242 C 168.963 122.696,169.434 122.724,168.367 124.316 M249.042 125.986 C 250.688 126.447,255.859 129.348,255.859 129.811 C 255.859 129.888,253.618 129.872,250.879 129.776 C 231.057 129.081,209.538 142.699,199.331 162.398 C 197.262 166.390,195.450 167.750,196.722 164.355 C 206.080 139.389,231.177 120.984,249.042 125.986 M161.941 129.335 C 155.307 143.910,158.776 163.760,170.417 177.836 C 172.675 180.567,172.121 181.641,169.680 179.267 C 160.221 170.065,154.310 154.146,155.839 141.991 C 156.605 135.910,159.007 129.862,161.401 127.989 C 163.046 126.701,163.090 126.811,161.941 129.335 M256.412 131.822 C 258.489 132.472,260.835 133.788,262.695 135.344 C 264.117 136.533,264.020 136.544,261.096 135.521 C 242.019 128.851,216.658 140.728,202.036 163.179 C 200.471 165.582,199.219 166.727,199.219 165.756 C 199.219 164.653,204.356 156.413,207.411 152.615 C 219.670 137.377,242.808 127.558,256.412 131.822 M155.655 135.788 C 151.642 149.544,156.795 167.578,168.189 179.656 C 170.496 182.102,171.145 183.594,169.902 183.594 C 169.512 183.594,165.345 179.792,163.112 177.400 C 151.803 165.283,148.151 147.797,154.347 135.430 C 156.639 130.855,157.061 130.970,155.655 135.788 M257.930 135.915 C 263.186 137.264,269.015 140.986,270.646 144.034 C 271.042 144.774,270.705 144.689,267.756 143.307 C 257.709 138.599,244.348 138.126,231.982 142.042 C 228.641 143.100,227.713 143.544,227.808 144.037 C 227.957 144.813,227.586 144.865,232.031 143.444 C 247.503 138.495,263.153 140.263,273.036 148.075 C 274.099 148.915,275.169 149.977,275.414 150.435 C 275.921 151.382,275.841 151.350,273.187 149.553 C 259.089 140.011,234.456 141.914,216.791 153.910 C 212.541 156.797,205.579 163.120,204.002 165.527 C 202.724 167.477,201.769 166.598,202.941 164.551 C 214.540 144.285,239.633 131.217,257.930 135.915 M150.920 140.527 C 147.287 154.647,153.738 171.819,166.897 183.055 C 170.165 185.846,169.920 186.873,166.541 184.546 C 152.399 174.806,144.496 154.938,149.258 141.097 C 149.836 139.416,151.277 137.109,151.749 137.109 C 151.777 137.109,151.404 138.647,150.920 140.527 M146.680 149.902 C 146.680 164.677,153.348 176.591,167.424 186.966 C 169.681 188.630,167.926 188.335,165.152 186.584 C 155.912 180.754,148.830 171.480,146.011 161.523 C 144.519 156.250,144.906 143.751,146.562 143.750 C 146.627 143.750,146.680 146.518,146.680 149.902 M259.601 145.673 C 267.588 147.318,275.334 151.529,278.556 155.977 C 279.986 157.951,280.016 158.657,278.613 157.342 C 270.457 149.696,253.394 145.429,241.211 147.990 C 228.659 150.628,217.560 156.332,208.519 164.789 C 204.723 168.340,203.807 168.040,206.917 164.262 C 212.326 157.692,223.195 150.643,232.672 147.558 C 241.726 144.612,251.220 143.947,259.601 145.673 M254.636 148.836 C 268.881 150.337,281.662 158.620,284.421 168.140 L 284.753 169.287 283.294 167.902 C 266.510 151.960,234.104 151.084,211.941 165.972 C 206.731 169.473,206.344 168.535,211.230 164.248 C 223.980 153.065,240.178 147.314,254.636 148.836 M140.217 152.097 C 137.182 158.958,137.911 169.014,142.060 177.539 C 142.843 179.146,142.874 179.320,142.236 178.523 C 141.185 177.207,138.934 172.597,137.839 169.517 C 135.817 163.830,136.857 153.340,139.689 150.859 C 141.065 149.654,141.179 149.922,140.217 152.097 M144.708 161.523 C 147.537 172.269,156.050 183.355,165.232 188.248 C 167.251 189.325,168.536 191.016,167.334 191.016 C 166.372 191.016,158.841 186.529,156.099 184.322 C 145.213 175.562,138.903 160.605,142.441 151.953 L 143.160 150.195 143.471 154.102 C 143.642 156.250,144.199 159.590,144.708 161.523 M135.884 155.887 C 132.119 170.776,145.215 190.258,165.028 199.242 C 169.794 201.403,168.323 202.214,163.019 200.350 C 141.359 192.733,126.408 173.552,130.816 159.038 C 131.898 155.476,131.836 155.295,131.836 162.012 C 131.836 166.908,131.965 168.157,132.693 170.328 C 134.113 174.558,135.089 176.563,135.728 176.563 C 136.519 176.563,136.487 176.207,135.497 173.958 C 132.091 166.226,132.303 154.760,135.889 152.754 C 136.796 152.246,136.796 152.282,135.884 155.887 M259.816 157.763 C 272.550 160.696,283.817 167.792,286.307 174.448 C 287.442 177.481,287.317 177.676,285.613 175.523 C 271.199 157.310,241.057 153.776,215.173 167.265 C 210.857 169.514,209.388 169.610,212.314 167.452 C 218.706 162.735,230.870 158.136,240.234 156.895 C 243.740 156.431,256.485 156.995,259.816 157.763 M128.893 160.853 C 126.411 176.851,143.829 196.652,165.715 202.711 C 168.519 203.487,169.157 204.505,166.601 204.124 C 144.316 200.804,121.712 176.002,127.128 160.814 C 128.431 157.163,129.462 157.185,128.893 160.853 M257.826 161.284 C 267.880 163.307,275.484 167.211,281.836 173.611 C 287.259 179.074,288.364 181.387,289.208 189.046 L 289.401 190.787 288.595 189.437 C 283.598 181.053,277.993 175.834,269.141 171.322 C 263.580 168.487,254.733 165.615,253.280 166.172 C 252.156 166.604,253.136 167.142,256.865 168.143 C 273.444 172.593,286.875 183.770,289.395 195.215 C 289.874 197.390,289.446 197.329,288.525 195.091 C 286.270 189.608,278.916 181.384,272.511 177.184 C 257.694 167.465,238.170 164.865,219.775 170.159 C 212.142 172.356,210.937 171.094,217.413 167.687 C 229.953 161.088,245.002 158.704,257.826 161.284 M142.976 169.531 C 146.815 178.482,154.358 186.169,164.354 191.316 C 167.076 192.718,168.137 193.708,166.309 193.139 C 152.882 188.962,140.172 174.405,140.253 163.297 L 140.272 160.742 141.163 164.063 C 141.654 165.889,142.469 168.350,142.976 169.531 M125.260 165.332 C 125.500 182.497,142.231 199.387,164.635 205.081 C 171.474 206.820,170.660 207.670,163.538 206.228 C 143.843 202.240,127.454 188.984,123.654 173.967 C 122.419 169.086,123.328 161.719,125.165 161.719 C 125.189 161.719,125.232 163.345,125.260 165.332 M122.868 175.781 C 128.018 192.039,145.614 205.071,166.699 208.244 C 170.774 208.857,170.909 209.489,166.895 209.159 C 147.734 207.587,129.828 197.444,123.207 184.411 C 120.237 178.565,119.117 171.704,120.540 168.077 L 121.273 166.211 121.545 169.336 C 121.694 171.055,122.290 173.955,122.868 175.781 M193.264 169.434 C 189.773 173.019,187.942 182.529,189.663 188.131 C 189.788 188.536,189.518 188.196,189.063 187.376 C 185.152 180.326,186.405 171.056,191.585 168.703 C 194.312 167.464,194.922 167.730,193.264 169.434 M201.563 168.098 C 201.563 168.170,200.695 168.790,199.634 169.478 C 196.047 171.802,193.025 177.208,192.167 182.837 C 191.388 187.942,190.739 187.628,190.664 182.108 C 190.553 173.975,194.385 167.969,199.686 167.969 C 200.718 167.969,201.563 168.027,201.563 168.098 M250.000 169.717 C 270.125 173.283,287.380 187.813,289.294 202.806 C 289.626 205.406,289.397 205.205,288.100 201.758 C 282.257 186.217,267.695 175.404,247.266 171.434 C 240.911 170.199,226.736 170.919,219.539 172.842 C 217.392 173.416,216.027 173.092,217.439 172.344 C 218.558 171.751,226.373 169.867,230.078 169.298 C 234.443 168.627,245.118 168.852,250.000 169.717 M207.617 169.682 L 208.789 170.188 206.624 170.823 C 201.735 172.259,197.751 176.486,194.699 183.477 C 193.236 186.829,192.999 186.335,193.940 181.893 C 195.841 172.919,202.125 167.310,207.617 169.682 M186.749 171.151 C 184.668 174.677,184.879 181.646,187.243 187.499 C 188.578 190.803,188.345 190.828,186.207 187.611 C 181.276 180.194,181.225 173.235,186.080 170.283 C 187.597 169.360,187.715 169.513,186.749 171.151 M119.073 176.370 C 121.832 193.602,141.720 207.915,166.602 210.577 C 173.432 211.307,172.628 211.831,165.039 211.595 C 141.716 210.871,121.080 196.839,117.751 179.441 C 117.063 175.843,117.040 173.967,117.663 172.226 L 118.138 170.898 118.417 172.461 C 118.571 173.320,118.866 175.080,119.073 176.370 M213.135 172.624 C 215.607 173.746,215.617 174.219,213.170 174.219 C 207.623 174.219,201.057 178.324,197.185 184.212 C 195.251 187.155,195.006 187.176,196.080 184.305 C 199.534 175.075,207.109 169.887,213.135 172.624 M247.704 172.899 C 269.810 176.679,288.395 193.758,288.462 210.352 C 288.484 215.819,288.064 216.124,286.583 211.719 C 279.457 190.518,255.498 175.836,227.619 175.585 C 218.829 175.506,217.092 175.132,220.631 174.081 C 222.557 173.509,228.692 172.430,231.836 172.110 C 234.774 171.811,244.036 172.271,247.704 172.899 M181.281 174.475 C 180.152 178.538,182.050 185.124,185.742 189.959 C 187.867 192.743,186.774 192.161,183.601 188.821 C 178.293 183.234,177.093 177.679,180.356 173.802 C 181.578 172.349,181.822 172.527,181.281 174.475 M216.996 176.510 C 218.393 177.145,221.356 179.946,221.003 180.299 C 220.927 180.375,219.758 180.093,218.405 179.672 C 212.610 177.868,205.430 180.177,199.126 185.872 C 197.177 187.633,196.965 187.306,198.528 184.946 C 203.307 177.732,211.474 174.001,216.996 176.510 M117.393 183.398 C 123.137 200.199,143.296 212.398,166.602 213.174 C 172.416 213.368,173.409 213.563,173.432 214.515 C 173.463 215.869,154.214 216.311,147.759 215.105 C 127.380 211.298,112.891 198.964,112.891 185.424 C 112.891 183.318,113.470 182.981,113.826 184.879 C 114.180 186.764,116.594 191.609,118.530 194.320 C 123.069 200.674,135.668 210.219,136.895 208.234 C 137.017 208.036,136.105 207.304,134.867 206.607 C 121.207 198.913,111.831 185.266,115.089 177.819 L 115.724 176.367 116.225 178.906 C 116.500 180.303,117.026 182.324,117.393 183.398 M177.165 179.201 C 177.188 182.964,179.127 186.562,183.504 190.963 L 186.754 194.232 184.391 192.904 C 176.500 188.472,172.837 181.245,176.455 177.247 C 176.796 176.870,177.091 176.563,177.111 176.565 C 177.132 176.566,177.156 177.752,177.165 179.201 M242.426 178.260 C 261.014 182.391,276.053 192.979,283.017 206.836 C 286.234 213.238,287.330 218.388,286.260 222.070 L 285.806 223.633 285.309 220.059 C 282.136 197.287,254.789 178.125,225.461 178.125 C 221.865 178.125,220.335 177.755,221.580 177.186 C 223.008 176.534,238.173 177.314,242.426 178.260 M229.357 179.681 C 265.932 182.358,293.201 211.064,281.558 234.632 L 279.492 238.814 279.242 234.528 C 277.746 208.938,256.707 187.230,227.461 181.100 C 225.168 180.619,223.222 180.017,223.137 179.761 C 222.954 179.215,222.976 179.214,229.357 179.681 M218.120 181.022 C 220.720 181.804,222.593 183.379,223.659 185.680 C 224.773 188.086,224.665 188.271,222.918 186.938 C 218.246 183.375,208.931 183.378,201.891 186.945 C 199.351 188.233,199.186 187.990,201.286 186.054 C 206.164 181.558,213.055 179.498,218.120 181.022 M155.078 188.746 C 158.265 190.863,164.610 194.175,166.354 194.631 C 167.251 194.865,167.522 196.094,166.676 196.094 C 162.051 196.094,151.272 188.904,147.287 183.161 L 145.554 180.664 148.656 183.602 C 150.362 185.218,153.252 187.532,155.078 188.746 M174.873 185.836 C 176.105 188.359,180.173 192.279,183.844 194.482 C 186.901 196.316,186.859 196.413,183.499 195.280 C 175.488 192.582,171.023 187.232,172.734 182.383 L 173.202 181.055 173.538 182.422 C 173.723 183.174,174.324 184.710,174.873 185.836 M231.948 183.622 C 253.582 189.155,271.037 205.341,276.466 224.903 C 277.824 229.796,278.058 240.323,276.854 242.383 L 276.169 243.555 276.412 241.154 C 278.800 217.500,257.580 192.144,228.549 183.961 C 226.312 183.331,224.378 182.703,224.252 182.566 C 223.860 182.141,228.810 182.820,231.948 183.622 M231.836 186.524 C 258.383 195.192,276.398 217.756,274.868 240.421 C 274.371 247.778,273.635 248.093,273.617 240.957 C 273.596 232.706,272.008 226.072,268.255 218.555 C 265.281 212.597,256.276 201.287,255.683 202.765 C 255.524 203.163,255.943 203.927,256.862 204.914 C 269.146 218.114,274.801 235.050,271.459 248.633 C 270.602 252.116,268.278 255.823,268.914 252.692 C 273.700 229.148,256.785 200.814,230.224 187.882 C 223.125 184.425,223.763 183.888,231.836 186.524 M219.346 186.683 C 223.341 188.450,226.009 191.932,225.709 194.986 L 225.586 196.236 224.473 194.623 C 221.092 189.723,211.727 187.079,203.809 188.788 C 200.532 189.496,200.507 189.333,203.664 187.855 C 208.841 185.433,215.410 184.942,219.346 186.683 M174.595 191.905 C 176.811 193.897,180.450 195.919,183.984 197.121 L 186.523 197.985 184.721 198.016 C 177.237 198.145,170.313 193.601,170.313 188.561 C 170.313 186.143,170.655 186.079,171.757 188.291 C 172.285 189.350,173.562 190.977,174.595 191.905 M232.208 190.497 C 247.446 198.189,259.900 212.393,265.544 228.516 C 269.608 240.127,269.055 253.632,264.285 259.277 C 262.652 261.209,262.452 260.819,263.515 257.777 C 271.362 235.319,256.123 205.357,229.127 190.165 C 223.911 187.229,226.230 187.479,232.208 190.497 M112.881 192.160 C 119.119 210.174,145.300 220.840,172.419 216.414 C 174.703 216.041,175.760 216.198,175.132 216.816 C 174.540 217.399,167.086 218.708,161.857 219.148 C 137.067 221.231,112.301 207.755,111.411 191.698 C 111.199 187.882,111.424 187.953,112.881 192.160 M198.633 189.948 C 201.907 191.776,202.855 196.451,200.516 199.231 C 197.630 202.660,192.088 202.325,189.948 198.592 C 186.789 193.083,193.064 186.838,198.633 189.948 M215.039 190.375 C 220.768 191.905,224.738 195.813,225.033 200.214 C 225.324 204.551,224.771 205.404,223.664 202.325 C 221.664 196.764,214.656 192.364,206.070 191.279 L 202.569 190.837 204.117 190.370 C 206.227 189.734,212.651 189.737,215.039 190.375 M229.251 191.865 C 245.627 201.710,256.128 214.039,261.463 229.688 C 266.145 243.417,264.351 258.943,257.308 265.661 C 254.605 268.239,254.472 268.096,256.272 264.549 C 259.059 259.057,261.443 245.703,259.637 245.703 C 258.857 245.703,258.697 246.433,258.441 251.172 C 258.069 258.048,255.393 265.071,251.537 269.289 C 248.776 272.310,248.523 272.043,250.562 268.262 C 262.806 245.561,254.012 213.356,230.566 195.032 C 226.731 192.034,225.798 189.790,229.251 191.865 M173.216 196.076 C 175.763 197.828,179.513 199.129,183.574 199.670 C 185.513 199.928,187.046 200.193,186.980 200.259 C 186.915 200.325,185.496 200.569,183.829 200.800 C 176.006 201.889,169.694 198.791,169.230 193.636 L 169.047 191.602 170.243 193.228 C 170.902 194.122,172.239 195.404,173.216 196.076 M214.244 195.059 C 221.357 198.467,225.181 206.121,222.070 210.727 L 221.289 211.884 221.036 209.343 C 220.669 205.656,219.453 203.380,216.043 199.997 C 213.182 197.159,207.058 193.411,205.152 193.332 C 204.616 193.310,204.636 193.248,205.263 193.003 C 206.478 192.528,211.233 193.617,214.244 195.059 M208.789 196.554 C 218.895 201.662,222.970 211.369,217.200 216.590 C 216.315 217.391,216.300 217.327,216.781 214.844 C 217.837 209.395,213.278 201.368,206.462 196.674 C 203.141 194.387,204.375 194.323,208.789 196.554 M233.235 199.200 C 253.785 217.846,260.546 246.121,249.521 267.313 C 247.662 270.886,245.520 273.739,243.755 274.997 C 241.898 276.319,241.999 275.818,244.291 272.333 C 258.551 250.660,251.699 215.960,229.494 197.399 C 228.526 196.590,227.734 195.685,227.734 195.387 C 227.734 194.581,229.474 195.787,233.235 199.200 M113.392 201.209 C 123.623 217.203,151.778 224.949,175.745 218.364 C 178.375 217.641,178.450 218.737,175.846 219.857 C 152.185 230.035,118.793 223.774,111.206 207.736 C 109.545 204.224,109.783 202.747,111.540 205.665 C 115.647 212.484,122.179 217.328,131.783 220.677 C 135.187 221.864,144.021 223.687,144.423 223.286 C 145.071 222.637,143.988 221.970,141.930 221.750 C 126.793 220.136,111.890 209.421,110.332 199.032 C 109.931 196.356,110.461 195.507,111.313 197.462 C 111.688 198.321,112.624 200.008,113.392 201.209 M209.739 201.563 C 216.097 207.851,217.350 215.333,212.773 219.688 C 211.063 221.315,210.508 221.104,211.492 219.201 C 213.791 214.756,211.724 206.948,206.423 200.050 C 203.553 196.315,205.187 197.061,209.739 201.563 M174.061 201.410 C 176.132 202.208,184.506 202.472,187.695 201.838 L 189.258 201.528 187.891 202.309 C 180.005 206.817,170.440 205.229,169.275 199.219 L 169.011 197.852 170.578 199.261 C 171.440 200.036,173.008 201.003,174.061 201.410 M233.335 203.240 C 250.515 222.465,255.221 245.723,246.140 266.527 C 243.523 272.523,237.573 279.004,233.852 279.910 C 232.784 280.170,232.823 280.077,234.908 277.378 C 249.724 258.202,247.279 225.848,229.284 202.950 C 227.554 200.749,227.315 200.238,227.540 199.216 L 227.800 198.033 229.310 199.229 C 230.140 199.887,231.952 201.692,233.335 203.240 M207.213 203.906 C 212.561 212.221,212.061 220.382,206.049 222.874 L 204.492 223.519 205.352 222.595 C 209.202 218.455,208.905 209.264,204.674 201.586 L 203.503 199.461 204.541 200.414 C 205.112 200.938,206.314 202.510,207.213 203.906 M204.110 204.395 C 208.558 213.812,206.685 222.766,199.994 224.078 L 198.633 224.345 200.249 222.580 C 204.276 218.184,205.103 210.714,202.501 202.246 C 202.000 200.614,202.880 201.789,204.110 204.395 M231.765 208.736 C 247.455 232.336,246.784 266.765,230.372 280.214 C 226.409 283.461,225.283 283.225,228.529 279.828 C 244.530 263.080,244.887 231.323,229.344 207.330 C 228.029 205.300,226.960 203.392,226.969 203.089 C 226.992 202.308,229.289 205.012,231.765 208.736 M189.844 203.940 C 182.030 210.321,173.752 211.015,170.757 205.540 L 169.834 203.853 171.929 204.954 C 175.702 206.937,182.514 206.587,188.281 204.114 C 190.956 202.967,191.047 202.957,189.844 203.940 M192.225 205.009 C 191.460 206.438,186.449 210.775,184.173 211.977 C 180.050 214.156,176.377 213.966,173.736 211.435 C 172.512 210.263,172.323 209.553,173.340 209.948 C 177.949 211.738,183.949 210.280,190.188 205.854 C 192.707 204.067,192.735 204.055,192.225 205.009 M198.822 211.876 C 197.567 218.342,193.758 222.656,189.305 222.656 C 186.280 222.656,186.100 222.280,188.570 221.112 C 192.924 219.053,196.690 213.604,198.304 207.031 L 199.023 204.102 199.147 206.836 C 199.215 208.340,199.069 210.608,198.822 211.876 M194.241 206.152 C 190.285 214.829,182.559 219.386,177.567 215.986 C 175.682 214.702,175.763 214.629,178.898 214.778 C 183.158 214.980,187.892 212.331,192.578 207.125 C 193.760 205.812,194.768 204.726,194.818 204.712 C 194.868 204.699,194.609 205.347,194.241 206.152 M202.249 212.738 C 202.041 219.804,198.206 224.645,193.405 223.904 C 192.535 223.770,192.579 223.690,194.063 222.708 C 197.921 220.153,200.748 214.132,200.781 208.398 C 200.787 207.324,200.913 206.006,201.062 205.469 C 201.580 203.592,202.375 208.460,202.249 212.738 M196.088 208.700 C 193.427 217.464,187.583 222.057,182.116 219.681 L 180.664 219.050 182.813 218.589 C 187.707 217.538,192.986 212.834,195.710 207.098 C 196.981 204.421,197.159 205.175,196.088 208.700 M228.495 208.796 C 242.585 230.379,243.034 259.911,229.529 276.790 C 225.883 281.347,221.139 284.733,218.365 284.757 C 217.528 284.764,217.663 284.584,219.341 283.453 C 238.314 270.668,242.161 236.008,227.486 210.072 C 224.660 205.077,225.431 204.102,228.495 208.796 M227.076 212.398 C 240.876 237.652,236.598 270.157,217.794 282.930 C 214.313 285.295,208.463 287.284,211.523 285.062 C 229.645 271.905,236.198 239.478,225.989 213.479 C 223.751 207.781,224.271 207.264,227.076 212.398 M115.468 215.251 C 128.035 226.895,151.519 229.384,175.278 221.589 C 182.052 219.367,181.995 220.342,175.194 223.019 C 152.421 231.983,127.389 229.945,114.837 218.103 C 111.966 215.395,110.547 213.037,110.547 210.974 L 110.547 209.695 112.050 211.586 C 112.877 212.626,114.415 214.275,115.468 215.251 M225.770 217.110 C 232.555 236.140,230.179 258.639,219.718 274.414 C 215.577 280.658,209.699 285.463,205.165 286.310 C 203.111 286.694,203.115 286.688,206.850 284.375 C 223.915 273.806,231.675 242.783,223.973 215.923 C 222.162 209.608,223.382 210.414,225.770 217.110 M223.471 219.531 C 231.157 249.558,217.213 285.201,197.220 286.631 C 193.943 286.866,193.862 286.481,196.881 285.005 C 215.017 276.137,226.479 244.919,221.249 218.631 C 220.766 216.201,220.741 215.464,221.125 215.001 C 221.886 214.084,222.264 214.814,223.471 219.531 M118.010 222.377 C 132.858 231.859,156.250 232.475,176.563 223.920 C 181.607 221.796,182.040 221.691,182.971 222.380 C 184.864 223.780,169.353 231.730,159.973 234.167 C 138.014 239.872,115.720 233.552,112.285 220.647 C 111.319 217.017,111.480 216.848,113.811 219.053 C 114.961 220.141,116.851 221.637,118.010 222.377 M219.698 218.262 C 225.952 247.664,209.742 284.423,189.895 285.843 C 185.733 286.141,185.208 285.678,188.427 284.549 C 207.575 277.833,221.208 251.066,219.155 224.219 C 218.933 221.318,218.751 218.550,218.751 218.066 C 218.750 216.831,219.423 216.970,219.698 218.262 M217.349 220.020 C 217.995 222.263,218.048 233.863,217.434 238.477 C 213.577 267.458,194.643 288.104,175.905 283.758 C 172.525 282.975,172.529 282.982,175.251 282.207 C 196.711 276.096,215.625 248.059,215.625 222.359 C 215.625 219.535,216.765 217.988,217.349 220.020 M214.063 224.010 C 214.063 235.031,209.879 247.957,202.933 258.398 C 192.855 273.549,175.061 284.424,166.211 280.842 C 165.074 280.382,165.130 280.352,168.103 279.830 C 189.990 275.985,209.987 251.835,212.694 225.977 C 213.231 220.843,214.063 219.649,214.063 224.010 M211.241 226.074 C 208.349 252.513,186.787 277.442,165.975 278.408 C 160.649 278.655,158.276 278.027,162.731 277.550 C 180.922 275.602,201.028 254.385,208.198 229.572 C 208.845 227.332,209.375 225.132,209.375 224.683 C 209.375 224.234,209.683 223.688,210.059 223.469 C 211.456 222.655,211.584 222.936,211.241 226.074 M185.938 224.125 C 185.938 225.856,171.789 233.946,164.032 236.652 C 144.263 243.548,119.938 240.204,115.074 229.921 C 113.627 226.863,113.807 226.608,115.979 228.639 C 130.267 242.004,162.111 240.217,183.594 224.845 C 184.961 223.866,185.938 223.566,185.938 224.125 M206.824 229.343 C 199.254 256.306,175.214 278.997,157.268 276.118 C 154.257 275.636,153.495 275.000,155.925 275.000 C 174.619 275.000,195.801 255.619,205.235 229.883 C 207.869 222.698,208.777 222.390,206.824 229.343 M188.988 224.946 C 189.990 225.581,179.229 234.841,172.700 238.963 C 150.598 252.916,125.651 252.296,118.219 237.611 C 116.757 234.722,116.873 234.632,119.824 236.360 C 136.527 246.140,164.295 242.337,184.180 227.546 C 188.436 224.380,188.252 224.479,188.988 224.946 M204.920 226.307 C 202.779 237.718,189.251 257.301,177.547 265.930 C 168.906 272.301,155.366 275.362,149.525 272.266 L 147.684 271.289 153.627 271.259 C 164.546 271.203,174.611 266.525,183.358 257.443 C 187.697 252.936,186.191 252.721,181.685 257.204 C 168.732 270.091,150.005 274.271,141.148 266.252 L 139.305 264.583 144.555 264.751 C 165.433 265.419,189.764 249.586,200.369 228.429 C 201.581 226.011,201.811 225.775,203.284 225.443 C 204.163 225.246,204.946 225.065,205.024 225.042 C 205.102 225.019,205.055 225.588,204.920 226.307 M191.797 226.220 C 191.797 227.061,181.773 236.545,177.811 239.453 C 156.828 254.853,129.809 257.528,122.448 244.933 C 122.247 244.589,122.653 244.719,123.458 245.256 C 139.965 256.277,168.021 248.840,188.672 227.970 C 190.737 225.883,191.797 225.290,191.797 226.220 M196.875 226.439 C 196.875 227.910,189.587 236.923,184.242 242.061 C 166.123 259.480,138.008 265.283,128.684 253.530 C 126.671 250.993,126.690 250.919,129.092 251.949 C 146.440 259.385,175.054 248.269,193.006 227.118 C 193.912 226.050,196.875 225.530,196.875 226.439 M198.607 228.582 C 194.695 236.360,186.700 245.724,179.212 251.299 C 163.552 262.956,141.571 267.325,134.584 260.171 L 133.068 258.617 134.991 259.335 C 152.958 266.045,183.029 251.442,196.848 229.296 C 199.423 225.169,200.554 224.710,198.607 228.582 M385.394 383.761 C 384.997 384.497,384.166 385.310,383.547 385.566 C 382.928 385.822,382.422 386.165,382.422 386.328 C 382.422 386.491,382.928 386.834,383.547 387.090 C 384.166 387.347,384.997 388.159,385.394 388.895 C 386.286 390.552,386.421 390.554,387.196 388.930 C 387.560 388.166,388.320 387.417,389.026 387.124 C 390.526 386.503,390.529 386.303,389.048 385.461 C 388.399 385.091,387.565 384.257,387.195 383.608 C 386.351 382.124,386.272 382.131,385.394 383.761 " stroke="none" fill="#ffffff" fill-rule="evenodd"></path><path id="path1" d="M0.000 200.000 L 0.000 400.000 200.000 400.000 L 400.000 400.000 400.000 200.000 L 400.000 0.000 200.000 0.000 L 0.000 0.000 0.000 200.000 M217.383 112.315 C 275.212 120.203,308.524 183.926,282.397 236.682 C 254.217 293.581,177.231 306.054,132.919 260.899 C 98.146 225.465,100.982 168.668,138.477 149.570 C 142.287 147.630,142.424 147.512,144.073 144.786 C 158.393 121.106,187.455 108.233,217.383 112.315 M201.225 114.278 C 184.763 121.754,174.770 147.701,180.358 168.457 C 181.547 172.873,181.931 171.311,181.055 165.625 C 178.029 145.993,188.125 123.507,203.807 114.949 L 206.836 113.296 205.078 113.311 C 204.079 113.320,202.416 113.737,201.225 114.278 M210.742 113.687 C 193.489 117.224,179.075 143.271,182.432 164.844 C 183.474 171.539,183.964 171.163,183.691 163.878 C 182.863 141.753,195.218 120.263,212.023 114.599 C 215.241 113.515,214.423 112.933,210.742 113.687 M194.122 114.746 C 185.911 118.888,178.181 133.017,176.543 146.875 C 176.086 150.747,175.786 151.546,175.110 150.700 C 174.657 150.133,174.999 146.587,175.974 141.722 C 177.842 132.412,182.740 122.991,188.793 117.070 C 191.177 114.738,191.371 114.445,190.383 114.675 C 187.861 115.264,185.782 116.498,183.751 118.611 C 171.982 130.861,169.258 152.245,177.252 169.639 C 179.530 174.595,180.030 173.361,178.483 166.602 C 174.243 148.081,182.630 124.590,196.870 115.100 L 199.013 113.672 197.632 113.672 C 196.873 113.672,195.293 114.155,194.122 114.746 M216.406 114.723 C 203.081 116.951,190.644 131.076,186.376 148.828 C 185.209 153.679,184.683 163.550,185.399 167.132 C 185.844 169.355,186.328 167.967,186.328 164.469 C 186.328 143.525,202.583 119.999,220.102 115.588 C 223.200 114.808,220.157 114.096,216.406 114.723 M221.175 116.623 C 203.650 121.341,188.882 141.689,188.023 162.305 C 187.761 168.593,188.355 169.271,189.050 163.477 C 191.884 139.851,208.866 119.862,228.320 117.254 L 230.664 116.940 229.102 116.480 C 227.042 115.874,223.738 115.934,221.175 116.623 M180.910 117.463 C 178.033 118.881,173.073 126.941,171.115 133.380 C 167.497 145.277,168.811 159.548,174.532 170.508 C 177.257 175.728,178.036 175.156,175.624 169.706 C 167.890 152.234,170.407 132.539,182.223 118.066 C 183.384 116.644,182.964 116.451,180.910 117.463 M227.046 118.767 C 212.517 121.370,198.516 135.022,193.010 151.953 C 191.072 157.915,189.678 166.802,190.684 166.791 C 191.735 166.779,192.099 166.140,193.344 162.115 C 199.718 141.512,218.100 123.796,236.328 120.689 L 239.258 120.190 237.626 119.468 C 235.673 118.603,230.043 118.230,227.046 118.767 M174.575 120.250 C 164.646 126.547,160.745 145.664,166.259 161.007 C 168.078 166.070,173.636 176.172,174.602 176.172 C 175.395 176.172,175.189 175.364,173.580 172.161 C 165.307 155.687,165.896 135.128,175.022 121.881 C 177.129 118.822,177.085 118.659,174.575 120.250 M233.305 122.659 C 219.543 126.265,205.011 139.275,197.845 154.402 C 196.330 157.599,193.750 164.693,193.750 165.660 C 193.750 166.290,194.548 166.038,194.789 165.332 C 202.395 143.043,223.165 124.901,242.188 123.931 L 246.680 123.702 244.727 122.794 C 242.224 121.630,237.449 121.573,233.305 122.659 M167.087 124.242 C 160.186 129.931,157.888 147.232,162.292 160.349 C 164.526 167.005,171.176 178.092,172.949 178.118 C 173.746 178.129,173.536 177.609,171.523 174.570 C 160.510 157.943,159.253 137.925,168.367 124.316 C 169.434 122.724,168.963 122.696,167.087 124.242 M239.453 125.405 C 222.312 127.700,204.312 144.108,196.722 164.355 C 195.450 167.750,197.262 166.390,199.331 162.398 C 209.538 142.699,231.057 129.081,250.879 129.776 C 253.618 129.872,255.859 129.888,255.859 129.811 C 255.859 129.348,250.688 126.447,249.042 125.986 C 246.343 125.231,242.495 124.997,239.453 125.405 M161.401 127.989 C 159.007 129.862,156.605 135.910,155.839 141.991 C 154.310 154.146,160.221 170.065,169.680 179.267 C 172.121 181.641,172.675 180.567,170.417 177.836 C 158.776 163.760,155.307 143.910,161.941 129.335 C 163.090 126.811,163.046 126.701,161.401 127.989 M243.617 131.261 C 228.336 133.673,212.247 144.299,203.739 157.600 C 202.193 160.016,199.219 165.383,199.219 165.756 C 199.219 166.727,200.471 165.582,202.036 163.179 C 216.658 140.728,242.019 128.851,261.096 135.521 C 264.020 136.544,264.117 136.533,262.695 135.344 C 258.254 131.628,251.053 130.088,243.617 131.261 M155.961 132.510 C 148.718 141.509,150.231 159.979,159.238 172.517 C 162.282 176.754,168.867 183.594,169.902 183.594 C 171.145 183.594,170.496 182.102,168.189 179.656 C 156.795 167.578,151.642 149.544,155.655 135.788 C 156.659 132.348,156.733 131.551,155.961 132.510 M244.369 135.171 C 228.478 137.675,211.385 149.797,202.941 164.551 C 201.769 166.598,202.724 167.477,204.002 165.527 C 205.579 163.120,212.541 156.797,216.791 153.910 C 234.456 141.914,259.089 140.011,273.187 149.553 C 275.841 151.350,275.921 151.382,275.414 150.435 C 275.169 149.977,274.099 148.915,273.036 148.075 C 263.153 140.263,247.503 138.495,232.031 143.444 C 227.586 144.865,227.957 144.813,227.808 144.037 C 227.713 143.544,228.641 143.100,231.982 142.042 C 244.348 138.126,257.709 138.599,267.756 143.307 C 271.586 145.102,271.718 144.678,268.354 141.401 C 263.376 136.552,252.889 133.828,244.369 135.171 M150.855 138.007 C 148.731 140.268,147.417 147.747,148.062 153.906 C 149.256 165.316,156.813 177.846,166.541 184.546 C 169.920 186.873,170.165 185.846,166.897 183.055 C 153.738 171.819,147.287 154.647,150.920 140.527 C 151.404 138.647,151.777 137.109,151.749 137.109 C 151.721 137.109,151.319 137.513,150.855 138.007 M145.781 145.215 C 144.707 147.586,144.845 157.404,146.011 161.523 C 148.830 171.480,155.912 180.754,165.152 186.584 C 167.926 188.335,169.681 188.630,167.424 186.966 C 153.348 176.591,146.680 164.677,146.680 149.902 C 146.680 143.058,146.703 143.180,145.781 145.215 M246.289 144.769 C 230.973 146.297,215.332 154.041,206.917 164.262 C 203.807 168.040,204.723 168.340,208.519 164.789 C 226.331 148.127,251.070 142.773,269.656 151.558 C 272.380 152.846,276.998 155.828,278.613 157.342 C 280.016 158.657,279.986 157.951,278.556 155.977 C 273.395 148.853,258.214 143.580,246.289 144.769 M245.025 148.841 C 233.276 150.076,221.016 155.665,211.230 164.248 C 206.344 168.535,206.731 169.473,211.941 165.972 C 234.104 151.084,266.510 151.960,283.294 167.902 L 284.753 169.287 284.421 168.140 C 280.905 156.009,262.519 147.002,245.025 148.841 M139.689 150.859 C 136.857 153.340,135.817 163.830,137.839 169.517 C 138.934 172.597,141.185 177.207,142.236 178.523 C 142.874 179.320,142.843 179.146,142.060 177.539 C 137.911 169.014,137.182 158.958,140.217 152.097 C 141.179 149.922,141.065 149.654,139.689 150.859 M142.441 151.953 C 138.903 160.605,145.213 175.562,156.099 184.322 C 158.841 186.529,166.372 191.016,167.334 191.016 C 168.536 191.016,167.251 189.325,165.232 188.248 C 153.575 182.035,144.569 167.904,143.471 154.102 L 143.160 150.195 142.441 151.953 M135.889 152.754 C 132.303 154.760,132.091 166.226,135.497 173.958 C 136.487 176.207,136.519 176.563,135.728 176.563 C 135.089 176.563,134.113 174.558,132.693 170.328 C 131.965 168.157,131.836 166.908,131.836 162.012 C 131.836 155.295,131.898 155.476,130.816 159.038 C 126.408 173.552,141.359 192.733,163.019 200.350 C 168.323 202.214,169.794 201.403,165.028 199.242 C 145.215 190.258,132.119 170.776,135.884 155.887 C 136.796 152.282,136.796 152.246,135.889 152.754 M240.234 156.895 C 230.870 158.136,218.706 162.735,212.314 167.452 C 209.388 169.610,210.857 169.514,215.173 167.265 C 241.057 153.776,271.199 157.310,285.613 175.523 C 287.317 177.676,287.442 177.481,286.307 174.448 C 282.216 163.513,258.495 154.476,240.234 156.895 M128.346 158.565 C 124.446 162.875,126.947 175.127,133.498 183.801 C 140.883 193.581,155.318 202.443,166.601 204.124 C 169.157 204.505,168.519 203.487,165.715 202.711 C 143.829 196.652,126.411 176.851,128.893 160.853 C 129.375 157.745,129.315 157.494,128.346 158.565 M239.008 160.723 C 231.638 161.783,223.874 164.287,217.413 167.687 C 210.937 171.094,212.142 172.356,219.775 170.159 C 238.170 164.865,257.694 167.465,272.511 177.184 C 278.916 181.384,286.270 189.608,288.525 195.091 C 289.446 197.329,289.874 197.390,289.395 195.215 C 286.875 183.770,273.444 172.593,256.865 168.143 C 253.136 167.142,252.156 166.604,253.280 166.172 C 254.733 165.615,263.580 168.487,269.141 171.322 C 277.993 175.834,283.598 181.053,288.595 189.437 L 289.401 190.787 289.208 189.046 C 288.364 181.387,287.259 179.074,281.836 173.611 C 271.759 163.458,255.015 158.420,239.008 160.723 M140.253 163.297 C 140.172 174.405,152.882 188.962,166.309 193.139 C 168.137 193.708,167.076 192.718,164.354 191.316 C 152.205 185.060,144.310 175.782,141.163 164.063 L 140.272 160.742 140.253 163.297 M124.463 162.446 C 122.949 164.119,122.561 169.648,123.654 173.967 C 127.454 188.984,143.843 202.240,163.538 206.228 C 170.660 207.670,171.474 206.820,164.635 205.081 C 142.231 199.387,125.500 182.497,125.260 165.332 C 125.232 163.345,125.189 161.719,125.165 161.719 C 125.141 161.719,124.825 162.046,124.463 162.446 M120.540 168.077 C 119.117 171.704,120.237 178.565,123.207 184.411 C 129.828 197.444,147.734 207.587,166.895 209.159 C 170.909 209.489,170.774 208.857,166.699 208.244 C 142.565 204.613,123.159 187.892,121.545 169.336 L 121.273 166.211 120.540 168.077 M191.585 168.703 C 186.405 171.056,185.152 180.326,189.063 187.376 C 189.518 188.196,189.788 188.536,189.663 188.131 C 187.942 182.529,189.773 173.019,193.264 169.434 C 194.922 167.730,194.312 167.464,191.585 168.703 M195.970 169.135 C 192.531 171.316,190.582 176.082,190.664 182.108 C 190.739 187.628,191.388 187.942,192.167 182.837 C 193.025 177.208,196.047 171.802,199.634 169.478 C 201.994 167.948,201.993 167.969,199.686 167.969 C 198.274 167.969,197.354 168.257,195.970 169.135 M230.078 169.298 C 226.373 169.867,218.558 171.751,217.439 172.344 C 216.027 173.092,217.392 173.416,219.539 172.842 C 226.736 170.919,240.911 170.199,247.266 171.434 C 267.695 175.404,282.257 186.217,288.100 201.758 C 289.397 205.205,289.626 205.406,289.294 202.806 C 286.637 181.992,256.917 165.175,230.078 169.298 M202.057 169.720 C 198.429 171.298,195.140 176.230,193.940 181.893 C 192.999 186.335,193.236 186.829,194.699 183.477 C 197.751 176.486,201.735 172.259,206.624 170.823 L 208.789 170.188 207.617 169.682 C 206.080 169.018,203.634 169.035,202.057 169.720 M186.080 170.283 C 181.225 173.235,181.276 180.194,186.207 187.611 C 188.345 190.828,188.578 190.803,187.243 187.499 C 184.879 181.646,184.668 174.677,186.749 171.151 C 187.715 169.513,187.597 169.360,186.080 170.283 M117.663 172.226 C 117.040 173.967,117.063 175.843,117.751 179.441 C 121.080 196.839,141.716 210.871,165.039 211.595 C 172.628 211.831,173.432 211.307,166.602 210.577 C 141.720 207.915,121.832 193.602,119.073 176.370 C 118.866 175.080,118.571 173.320,118.417 172.461 L 118.138 170.898 117.663 172.226 M205.238 173.029 C 201.421 174.938,198.017 179.129,196.080 184.305 C 195.006 187.176,195.251 187.155,197.185 184.212 C 201.057 178.324,207.623 174.219,213.170 174.219 C 215.617 174.219,215.607 173.746,213.135 172.624 C 210.695 171.516,207.987 171.655,205.238 173.029 M231.836 172.110 C 228.692 172.430,222.557 173.509,220.631 174.081 C 217.092 175.132,218.829 175.506,227.619 175.585 C 255.498 175.836,279.457 190.518,286.583 211.719 C 288.064 216.124,288.484 215.819,288.462 210.352 C 288.404 195.977,273.145 179.769,254.688 174.477 C 248.274 172.638,237.556 171.528,231.836 172.110 M180.356 173.802 C 177.093 177.679,178.293 183.234,183.601 188.821 C 186.774 192.161,187.867 192.743,185.742 189.959 C 182.050 185.124,180.152 178.538,181.281 174.475 C 181.822 172.527,181.578 172.349,180.356 173.802 M209.096 176.348 C 205.453 177.487,201.151 180.986,198.528 184.946 C 196.965 187.306,197.177 187.633,199.126 185.872 C 205.430 180.177,212.610 177.868,218.405 179.672 C 221.397 180.603,221.481 180.546,219.852 178.691 C 217.456 175.962,213.258 175.047,209.096 176.348 M115.089 177.819 C 111.831 185.266,121.207 198.913,134.867 206.607 C 136.942 207.775,137.460 208.594,136.127 208.594 C 134.591 208.594,127.520 203.687,123.502 199.831 C 118.653 195.180,114.577 188.881,113.826 184.879 C 113.470 182.981,112.891 183.318,112.891 185.424 C 112.891 198.964,127.380 211.298,147.759 215.105 C 154.214 216.311,173.463 215.869,173.432 214.515 C 173.409 213.563,172.416 213.368,166.602 213.174 C 140.923 212.319,120.007 198.091,116.225 178.906 L 115.724 176.367 115.089 177.819 M176.455 177.247 C 172.837 181.245,176.500 188.472,184.391 192.904 L 186.754 194.232 183.504 190.963 C 179.127 186.562,177.188 182.964,177.165 179.201 C 177.156 177.752,177.132 176.566,177.111 176.565 C 177.091 176.563,176.796 176.870,176.455 177.247 M221.580 177.186 C 220.335 177.755,221.865 178.125,225.461 178.125 C 254.789 178.125,282.136 197.287,285.309 220.059 L 285.806 223.633 286.260 222.070 C 290.108 208.827,272.067 187.884,250.434 180.479 C 242.646 177.814,224.691 175.765,221.580 177.186 M223.137 179.761 C 223.222 180.017,225.168 180.619,227.461 181.100 C 256.707 187.230,277.746 208.938,279.242 234.528 L 279.492 238.814 281.558 234.632 C 293.201 211.064,265.932 182.358,229.357 179.681 C 222.976 179.214,222.954 179.215,223.137 179.761 M209.375 181.358 C 206.221 182.437,203.490 184.023,201.286 186.054 C 199.186 187.990,199.351 188.233,201.891 186.945 C 208.931 183.378,218.246 183.375,222.918 186.938 C 224.665 188.271,224.773 188.086,223.659 185.680 C 221.516 181.054,215.543 179.247,209.375 181.358 M147.287 183.161 C 151.272 188.904,162.051 196.094,166.676 196.094 C 167.522 196.094,167.251 194.865,166.354 194.631 C 162.305 193.572,153.176 187.883,148.656 183.602 L 145.554 180.664 147.287 183.161 M172.734 182.383 C 171.023 187.232,175.488 192.582,183.499 195.280 C 186.859 196.413,186.901 196.316,183.844 194.482 C 178.492 191.271,174.591 186.706,173.538 182.422 L 173.202 181.055 172.734 182.383 M224.252 182.566 C 224.378 182.703,226.312 183.331,228.549 183.961 C 257.580 192.144,278.800 217.500,276.412 241.154 L 276.169 243.555 276.854 242.383 C 278.058 240.323,277.824 229.796,276.466 224.903 C 271.037 205.341,253.582 189.155,231.948 183.622 C 228.810 182.820,223.860 182.141,224.252 182.566 M225.391 185.116 C 225.391 185.343,227.565 186.587,230.224 187.882 C 256.785 200.814,273.700 229.148,268.914 252.692 C 268.278 255.823,270.602 252.116,271.459 248.633 C 274.801 235.050,269.146 218.114,256.862 204.914 C 255.943 203.927,255.524 203.163,255.683 202.765 C 256.276 201.287,265.281 212.597,268.255 218.555 C 272.008 226.072,273.596 232.706,273.617 240.957 C 273.635 248.093,274.371 247.778,274.868 240.421 C 276.220 220.401,261.796 199.527,239.755 189.606 C 233.533 186.805,225.391 184.260,225.391 185.116 M208.645 186.124 C 206.394 186.635,201.172 188.777,201.172 189.190 C 201.172 189.282,202.358 189.102,203.809 188.788 C 211.727 187.079,221.092 189.723,224.473 194.623 L 225.586 196.236 225.709 194.986 C 226.323 188.737,217.445 184.126,208.645 186.124 M170.555 186.606 C 170.100 187.062,170.311 190.271,170.866 191.328 C 172.862 195.130,179.043 198.114,184.721 198.016 L 186.523 197.985 183.984 197.121 C 178.178 195.146,173.485 191.757,171.757 188.291 C 171.229 187.231,170.688 186.473,170.555 186.606 M226.659 188.376 C 226.748 188.646,227.859 189.451,229.127 190.165 C 256.123 205.357,271.362 235.319,263.515 257.777 C 262.452 260.819,262.652 261.209,264.285 259.277 C 269.055 253.632,269.608 240.127,265.544 228.516 C 259.900 212.393,247.446 198.189,232.208 190.497 C 227.603 188.172,226.444 187.729,226.659 188.376 M111.411 191.698 C 112.301 207.755,137.067 221.231,161.857 219.148 C 167.086 218.708,174.540 217.399,175.132 216.816 C 175.760 216.198,174.703 216.041,172.419 216.414 C 145.300 220.840,119.119 210.174,112.881 192.160 C 111.424 187.953,111.199 187.882,111.411 191.698 M192.496 189.862 C 190.656 190.834,189.060 193.478,189.069 195.542 C 189.100 203.047,200.662 203.729,201.778 196.292 C 202.530 191.274,197.033 187.466,192.496 189.862 M204.117 190.370 L 202.569 190.837 206.070 191.279 C 214.656 192.364,221.664 196.764,223.664 202.325 C 224.771 205.404,225.324 204.551,225.033 200.214 C 224.544 192.925,213.259 187.614,204.117 190.370 M227.344 191.764 C 227.344 192.238,228.527 193.438,230.566 195.032 C 254.012 213.356,262.806 245.561,250.562 268.262 C 248.523 272.043,248.776 272.310,251.537 269.289 C 255.393 265.071,258.069 258.048,258.441 251.172 C 258.697 246.433,258.857 245.703,259.637 245.703 C 261.443 245.703,259.059 259.057,256.272 264.549 C 254.472 268.096,254.605 268.239,257.308 265.661 C 264.351 258.943,266.145 243.417,261.463 229.688 C 256.128 214.039,245.627 201.710,229.251 191.865 C 227.522 190.826,227.344 190.817,227.344 191.764 M169.230 193.636 C 169.694 198.791,176.006 201.889,183.829 200.800 C 185.496 200.569,186.915 200.325,186.980 200.259 C 187.046 200.193,185.513 199.928,183.574 199.670 C 177.472 198.858,172.683 196.543,170.243 193.228 L 169.047 191.602 169.230 193.636 M205.263 193.003 C 204.636 193.248,204.616 193.310,205.152 193.332 C 207.058 193.411,213.182 197.159,216.043 199.997 C 219.453 203.380,220.669 205.656,221.036 209.343 L 221.289 211.884 222.070 210.727 C 224.203 207.569,222.596 201.362,218.763 197.952 C 215.477 195.028,207.532 192.116,205.263 193.003 M204.297 195.010 C 204.297 195.105,205.271 195.854,206.462 196.674 C 213.278 201.368,217.837 209.395,216.781 214.844 C 216.300 217.327,216.315 217.391,217.200 216.590 C 221.867 212.367,219.886 204.151,212.983 199.094 C 210.109 196.989,204.297 194.256,204.297 195.010 M227.734 195.387 C 227.734 195.685,228.526 196.590,229.494 197.399 C 251.699 215.960,258.551 250.660,244.291 272.333 C 241.999 275.818,241.898 276.319,243.755 274.997 C 245.520 273.739,247.662 270.886,249.521 267.313 C 259.245 248.622,255.063 223.415,239.234 205.310 C 234.537 199.937,227.734 194.067,227.734 195.387 M110.350 196.587 C 109.434 198.829,112.292 205.351,115.965 209.400 C 121.613 215.627,132.336 220.727,141.930 221.750 C 143.988 221.970,145.071 222.637,144.423 223.286 C 144.021 223.687,135.187 221.864,131.783 220.677 C 122.179 217.328,115.647 212.484,111.540 205.665 C 109.783 202.747,109.545 204.224,111.206 207.736 C 118.793 223.774,152.185 230.035,175.846 219.857 C 178.450 218.737,178.375 217.641,175.745 218.364 C 149.649 225.534,119.255 215.674,111.313 197.462 C 110.763 196.200,110.577 196.031,110.350 196.587 M206.423 200.050 C 211.724 206.948,213.791 214.756,211.492 219.201 C 210.508 221.104,211.063 221.315,212.773 219.688 C 217.350 215.333,216.097 207.851,209.739 201.563 C 205.187 197.061,203.553 196.315,206.423 200.050 M169.275 199.219 C 170.440 205.229,180.005 206.817,187.891 202.309 L 189.258 201.528 187.695 201.838 C 181.311 203.106,173.555 201.938,170.578 199.261 L 169.011 197.852 169.275 199.219 M227.540 199.216 C 227.315 200.238,227.554 200.749,229.284 202.950 C 247.279 225.848,249.724 258.202,234.908 277.378 C 232.531 280.454,233.022 280.908,236.362 278.724 C 247.047 271.737,252.862 252.947,249.790 235.332 C 247.613 222.846,238.218 206.284,229.310 199.229 L 227.800 198.033 227.540 199.216 M204.674 201.586 C 208.905 209.264,209.202 218.455,205.352 222.595 L 204.492 223.519 206.049 222.874 C 212.922 220.025,212.069 207.325,204.541 200.414 L 203.503 199.461 204.674 201.586 M202.501 202.246 C 205.103 210.714,204.276 218.184,200.249 222.580 L 198.633 224.345 199.994 224.078 C 206.685 222.766,208.558 213.812,204.110 204.395 C 202.880 201.789,202.000 200.614,202.501 202.246 M226.969 203.089 C 226.960 203.392,228.029 205.300,229.344 207.330 C 244.887 231.323,244.530 263.080,228.529 279.828 C 225.283 283.225,226.409 283.461,230.372 280.214 C 243.163 269.733,246.997 243.652,238.848 222.554 C 235.793 214.642,227.051 200.319,226.969 203.089 M188.281 204.114 C 182.514 206.587,175.702 206.937,171.929 204.954 L 169.834 203.853 170.757 205.540 C 173.752 211.015,182.030 210.321,189.844 203.940 C 191.047 202.957,190.956 202.967,188.281 204.114 M190.188 205.854 C 183.949 210.280,177.949 211.738,173.340 209.948 C 172.323 209.553,172.512 210.263,173.736 211.435 C 177.495 215.036,183.210 213.851,189.177 208.231 C 193.180 204.462,193.625 203.416,190.188 205.854 M198.304 207.031 C 196.690 213.604,192.924 219.053,188.570 221.112 C 186.100 222.280,186.280 222.656,189.305 222.656 C 195.055 222.656,199.536 215.454,199.147 206.836 L 199.023 204.102 198.304 207.031 M192.578 207.125 C 187.892 212.331,183.158 214.980,178.898 214.778 C 175.763 214.629,175.682 214.702,177.567 215.986 C 181.790 218.862,187.826 216.287,192.149 209.766 C 193.363 207.935,195.106 204.634,194.818 204.712 C 194.768 204.726,193.760 205.812,192.578 207.125 M201.062 205.469 C 200.913 206.006,200.787 207.324,200.781 208.398 C 200.748 214.132,197.921 220.153,194.063 222.708 C 192.579 223.690,192.535 223.770,193.405 223.904 C 198.206 224.645,202.041 219.804,202.249 212.738 C 202.375 208.460,201.580 203.592,201.062 205.469 M195.710 207.098 C 192.986 212.834,187.707 217.538,182.813 218.589 L 180.664 219.050 182.116 219.681 C 187.583 222.057,193.427 217.464,196.088 208.700 C 197.159 205.175,196.981 204.421,195.710 207.098 M225.781 206.459 C 225.781 206.789,226.549 208.415,227.486 210.072 C 242.161 236.008,238.314 270.668,219.341 283.453 C 217.017 285.019,218.070 285.323,221.084 283.956 C 236.868 276.796,243.889 248.778,235.955 224.614 C 233.077 215.850,225.781 202.831,225.781 206.459 M224.609 209.475 C 224.609 209.745,225.230 211.547,225.989 213.479 C 236.198 239.478,229.645 271.905,211.523 285.062 C 208.463 287.284,214.313 285.295,217.794 282.930 C 232.958 272.630,239.193 248.669,232.614 225.977 C 230.373 218.247,224.609 206.366,224.609 209.475 M110.547 210.974 C 110.547 213.037,111.966 215.395,114.837 218.103 C 127.389 229.945,152.421 231.983,175.194 223.019 C 181.995 220.342,182.052 219.367,175.278 221.589 C 148.939 230.230,123.701 226.237,112.050 211.586 L 110.547 209.695 110.547 210.974 M223.270 212.065 C 223.118 212.310,223.435 214.046,223.973 215.923 C 231.675 242.783,223.915 273.806,206.850 284.375 C 203.115 286.688,203.111 286.694,205.165 286.310 C 219.410 283.648,231.707 256.616,229.323 233.203 C 228.454 224.662,224.347 210.322,223.270 212.065 M221.125 215.001 C 220.741 215.464,220.766 216.201,221.249 218.631 C 226.479 244.919,215.017 276.137,196.881 285.005 C 193.862 286.481,193.943 286.866,197.220 286.631 C 210.284 285.697,222.735 267.606,225.381 245.713 C 226.723 234.610,223.594 212.027,221.125 215.001 M111.723 217.814 C 111.812 232.018,136.301 240.317,159.973 234.167 C 169.353 231.730,184.864 223.780,182.971 222.380 C 182.040 221.691,181.607 221.796,176.563 223.920 C 153.839 233.490,126.864 231.398,113.811 219.053 C 112.198 217.528,111.720 217.244,111.723 217.814 M218.751 218.066 C 218.751 218.550,218.933 221.318,219.155 224.219 C 221.208 251.066,207.575 277.833,188.427 284.549 C 185.208 285.678,185.733 286.141,189.895 285.843 C 209.742 284.423,225.952 247.664,219.698 218.262 C 219.423 216.970,218.750 216.831,218.751 218.066 M216.094 219.609 C 215.836 219.867,215.625 221.105,215.625 222.359 C 215.625 248.059,196.711 276.096,175.251 282.207 C 172.529 282.982,172.525 282.975,175.905 283.758 C 197.666 288.805,218.988 260.114,217.830 227.344 C 217.549 219.409,217.319 218.384,216.094 219.609 M213.141 222.559 C 213.030 223.149,212.829 224.688,212.694 225.977 C 209.987 251.835,189.990 275.985,168.103 279.830 C 165.130 280.352,165.074 280.382,166.211 280.842 C 175.061 284.424,192.855 273.549,202.933 258.398 C 209.879 247.957,214.063 235.031,214.063 224.010 C 214.063 221.454,213.512 220.586,213.141 222.559 M210.059 223.469 C 209.683 223.688,209.375 224.234,209.375 224.683 C 209.375 225.132,208.845 227.332,208.198 229.572 C 201.028 254.385,180.922 275.602,162.731 277.550 C 158.276 278.027,160.649 278.655,165.975 278.408 C 186.787 277.442,208.349 252.513,211.241 226.074 C 211.584 222.936,211.456 222.655,210.059 223.469 M183.594 224.845 C 162.111 240.217,130.267 242.004,115.979 228.639 C 113.807 226.608,113.627 226.863,115.074 229.921 C 119.938 240.204,144.263 243.548,164.032 236.652 C 171.789 233.946,185.938 225.856,185.938 224.125 C 185.938 223.566,184.961 223.866,183.594 224.845 M207.119 225.000 C 206.871 225.537,206.023 227.734,205.235 229.883 C 195.801 255.619,174.619 275.000,155.925 275.000 C 153.495 275.000,154.257 275.636,157.268 276.118 C 175.214 278.997,199.254 256.306,206.824 229.343 C 207.881 225.580,208.058 222.973,207.119 225.000 M184.180 227.546 C 164.295 242.337,136.527 246.140,119.824 236.360 C 116.873 234.632,116.757 234.722,118.219 237.611 C 125.651 252.296,150.598 252.916,172.700 238.963 C 179.229 234.841,189.990 225.581,188.988 224.946 C 188.252 224.479,188.436 224.380,184.180 227.546 M203.284 225.443 C 201.811 225.775,201.581 226.011,200.369 228.429 C 189.764 249.586,165.433 265.419,144.555 264.751 L 139.305 264.583 141.148 266.252 C 150.005 274.271,168.732 270.091,181.685 257.204 C 186.191 252.721,187.697 252.936,183.358 257.443 C 174.611 266.525,164.546 271.203,153.627 271.259 L 147.684 271.289 149.525 272.266 C 152.362 273.770,160.459 273.685,165.234 272.102 C 180.975 266.882,194.906 251.863,203.274 231.092 C 204.523 227.991,205.409 224.928,205.024 225.042 C 204.946 225.065,204.163 225.246,203.284 225.443 M188.672 227.970 C 168.021 248.840,139.965 256.277,123.458 245.256 C 122.653 244.719,122.247 244.589,122.448 244.933 C 128.649 255.544,150.306 255.497,169.429 244.831 C 178.479 239.784,194.627 225.730,191.309 225.790 C 191.040 225.795,189.854 226.776,188.672 227.970 M193.006 227.118 C 175.054 248.269,146.440 259.385,129.092 251.949 C 126.690 250.919,126.671 250.993,128.684 253.530 C 138.008 265.283,166.123 259.480,184.242 242.061 C 189.587 236.923,196.875 227.910,196.875 226.439 C 196.875 225.530,193.912 226.050,193.006 227.118 M198.791 226.435 C 198.459 226.827,197.585 228.115,196.848 229.296 C 183.029 251.442,152.958 266.045,134.991 259.335 L 133.068 258.617 134.584 260.171 C 141.571 267.325,163.552 262.956,179.212 251.299 C 186.700 245.724,194.695 236.360,198.607 228.582 C 199.710 226.388,199.809 225.230,198.791 226.435 M387.195 383.608 C 387.565 384.257,388.399 385.091,389.048 385.461 C 390.529 386.303,390.526 386.503,389.026 387.124 C 388.320 387.417,387.560 388.166,387.196 388.930 C 386.421 390.554,386.286 390.552,385.394 388.895 C 384.997 388.159,384.166 387.347,383.547 387.090 C 382.928 386.834,382.422 386.491,382.422 386.328 C 382.422 386.165,382.928 385.822,383.547 385.566 C 384.166 385.310,384.997 384.497,385.394 383.761 C 386.272 382.131,386.351 382.124,387.195 383.608 " stroke="none" fill="#040404" fill-rule="evenodd"></path></g></svg>