<svg id="svg" xmlns="http://www.w3.org/2000/svg" xmlns:xlink="http://www.w3.org/1999/xlink" width="400" height="400" viewBox="0, 0, 400,400" version="1.1"><g id="svgg"><path id="path0" d="M118.359 45.574 C 116.318 46.772,110.518 50.126,105.469 53.028 C 85.727 64.373,71.455 72.741,70.897 73.299 C 70.388 73.808,70.312 77.746,70.312 103.688 L 70.312 133.492 59.863 139.564 C 54.116 142.904,43.350 149.143,35.938 153.429 C 28.525 157.714,21.582 161.741,20.508 162.376 L 18.555 163.531 18.455 193.650 L 18.355 223.770 21.189 225.497 C 25.315 228.012,40.306 236.684,65.039 250.865 L 70.117 253.777 70.217 283.881 L 70.317 313.984 72.170 315.145 C 76.118 317.617,118.916 342.112,121.134 343.169 L 122.541 343.840 134.025 337.283 C 140.340 333.677,151.719 327.141,159.310 322.760 C 166.901 318.379,173.360 314.699,173.664 314.582 C 173.968 314.466,177.337 316.179,181.151 318.390 C 203.301 331.228,220.965 341.311,224.163 342.941 L 225.865 343.808 241.546 334.837 C 254.402 327.482,263.743 322.112,276.267 314.877 L 277.339 314.258 277.341 284.119 L 277.344 253.980 279.004 253.026 C 279.917 252.501,286.113 248.938,292.773 245.109 C 305.421 237.838,323.863 227.105,327.051 225.161 L 328.906 224.029 328.906 193.748 L 328.906 163.467 322.168 159.502 C 312.507 153.817,297.768 145.268,286.914 139.054 L 277.539 133.686 277.344 103.355 L 277.148 73.025 275.586 72.121 C 274.727 71.624,271.876 69.961,269.251 68.424 C 266.626 66.887,255.758 60.613,245.100 54.480 L 225.721 43.330 219.990 46.621 C 204.197 55.689,195.318 60.814,185.293 66.648 C 179.246 70.167,174.203 73.047,174.088 73.047 C 173.972 73.047,169.867 70.703,164.966 67.837 C 145.822 56.646,122.623 43.350,122.289 43.378 C 122.169 43.388,120.400 44.376,118.359 45.574 M119.758 48.871 C 115.613 57.580,107.422 75.463,107.422 75.802 C 107.422 76.005,106.795 76.172,106.029 76.172 C 102.847 76.172,73.057 73.578,72.754 73.275 C 72.544 73.065,73.014 72.776,81.055 68.170 C 94.212 60.634,118.583 46.586,119.904 45.777 C 121.743 44.650,121.741 44.705,119.758 48.871 M147.852 58.977 C 163.402 67.940,170.786 72.290,171.417 72.861 C 172.065 73.448,167.544 73.937,141.645 76.085 L 137.782 76.405 136.231 73.066 C 134.102 68.483,123.801 46.012,123.557 45.419 C 123.356 44.929,127.214 47.082,147.852 58.977 M224.609 45.465 C 224.609 45.627,219.953 55.770,214.099 68.359 C 210.957 75.118,210.445 75.991,209.558 76.102 C 208.292 76.261,184.809 74.392,177.996 73.590 L 175.718 73.322 176.824 72.665 C 180.410 70.533,194.964 62.103,209.766 53.586 C 214.814 50.680,220.088 47.639,221.484 46.828 C 223.890 45.431,224.609 45.117,224.609 45.465 M234.399 49.454 C 238.360 51.731,243.184 54.476,245.117 55.553 C 247.051 56.630,248.809 57.644,249.023 57.807 C 249.238 57.969,252.402 59.823,256.055 61.926 C 277.539 74.298,276.148 73.438,274.661 73.438 C 274.173 73.438,268.030 73.959,261.008 74.597 C 253.987 75.235,246.594 75.806,244.580 75.867 L 240.917 75.977 237.807 69.336 C 231.758 56.417,226.777 45.313,227.033 45.313 C 227.122 45.313,230.437 47.176,234.399 49.454 M121.852 74.121 C 121.837 91.975,121.698 101.165,121.448 100.781 C 117.895 95.317,107.927 76.703,108.188 76.019 C 108.361 75.566,110.074 71.855,111.994 67.773 C 113.915 63.691,116.880 57.320,118.583 53.615 C 120.286 49.910,121.724 46.877,121.777 46.877 C 121.831 46.876,121.865 59.136,121.852 74.121 M131.146 64.258 C 133.610 69.629,135.899 74.684,136.233 75.491 C 136.947 77.218,137.652 75.722,128.834 91.182 L 123.047 101.327 123.081 74.199 L 123.116 47.070 124.891 50.781 C 125.868 52.822,128.683 58.887,131.146 64.258 M225.356 74.234 C 225.320 89.067,225.228 101.140,225.152 101.063 C 224.939 100.850,211.659 77.604,211.448 77.073 C 211.346 76.817,213.588 71.632,216.431 65.550 C 219.274 59.468,222.359 52.866,223.287 50.879 C 224.215 48.892,225.075 47.266,225.198 47.266 C 225.321 47.266,225.392 59.401,225.356 74.234 M230.012 54.692 C 231.711 58.449,234.706 64.940,236.667 69.115 L 240.233 76.707 234.899 86.107 C 231.965 91.278,228.804 96.826,227.875 98.438 L 226.186 101.367 226.179 74.238 C 226.174 56.871,226.307 47.245,226.548 47.485 C 226.754 47.692,228.313 50.935,230.012 54.692 M273.412 75.081 C 272.079 75.900,258.529 83.696,248.438 89.450 C 244.431 91.735,233.374 98.110,227.576 101.478 C 227.382 101.591,227.317 101.524,227.432 101.330 C 227.547 101.136,228.913 98.691,230.469 95.898 C 235.075 87.627,240.151 78.766,240.744 77.961 C 241.219 77.318,242.180 77.142,247.526 76.721 C 256.427 76.020,267.738 75.027,270.703 74.686 C 274.924 74.201,274.860 74.191,273.412 75.081 M86.328 75.606 C 90.088 75.933,96.313 76.456,100.161 76.770 C 104.009 77.083,107.187 77.384,107.223 77.439 C 107.259 77.494,108.399 79.561,109.755 82.031 C 112.208 86.498,118.861 98.171,120.443 100.781 L 121.271 102.148 120.304 101.528 C 118.509 100.377,111.997 96.613,93.359 85.957 C 72.259 73.893,73.053 74.428,76.758 74.764 C 78.262 74.901,82.568 75.280,86.328 75.606 M169.119 75.701 C 168.164 76.302,165.273 77.997,162.695 79.468 C 150.341 86.517,124.741 101.321,124.233 101.710 C 123.918 101.952,124.073 101.448,124.580 100.586 C 125.086 99.727,128.227 94.189,131.560 88.281 C 134.893 82.373,137.643 77.503,137.673 77.459 C 137.702 77.415,143.168 76.914,149.820 76.346 C 156.472 75.779,163.232 75.180,164.844 75.016 C 166.455 74.853,168.467 74.694,169.315 74.664 L 170.856 74.609 169.119 75.701 M196.453 76.165 C 204.062 76.814,210.379 77.437,210.491 77.548 C 210.918 77.975,224.172 101.348,224.054 101.466 C 223.852 101.669,178.127 75.459,177.344 74.692 C 177.236 74.587,178.379 74.610,179.883 74.743 C 181.387 74.876,188.843 75.516,196.453 76.165 M75.990 81.641 C 82.229 90.856,85.541 95.717,87.700 98.828 C 91.118 103.752,91.285 102.589,86.065 110.254 C 83.542 113.960,79.503 119.839,77.090 123.320 C 74.677 126.800,72.435 130.139,72.109 130.741 C 71.574 131.729,71.514 129.075,71.500 103.535 C 71.491 87.720,71.633 75.398,71.820 75.605 C 72.005 75.810,73.882 78.525,75.990 81.641 M97.944 89.740 L 120.301 102.539 105.957 102.642 L 91.612 102.744 90.926 101.860 C 90.548 101.374,88.155 97.900,85.607 94.141 C 83.060 90.381,79.192 84.697,77.011 81.510 C 72.564 75.009,72.561 75.002,74.316 76.128 C 75.015 76.576,85.647 82.701,97.944 89.740 M173.144 105.176 C 173.198 119.517,173.154 131.244,173.047 131.237 C 172.857 131.224,170.920 128.412,159.504 111.574 L 153.969 103.411 156.131 100.045 C 157.320 98.194,161.569 91.911,165.572 86.084 L 172.852 75.488 172.949 77.295 C 173.002 78.288,173.090 90.835,173.144 105.176 M184.375 89.131 C 189.424 96.674,193.615 103.002,193.689 103.192 C 193.809 103.503,184.382 117.803,177.768 127.344 L 175.195 131.055 175.100 125.781 C 174.893 114.387,174.816 75.391,175.000 75.402 C 175.107 75.409,179.326 81.587,184.375 89.131 M276.520 103.320 C 276.535 118.682,276.477 131.250,276.390 131.250 C 276.199 131.250,266.398 117.212,261.014 109.226 L 257.095 103.412 262.814 94.968 C 265.959 90.323,269.625 84.941,270.960 83.008 C 272.295 81.074,274.025 78.569,274.803 77.441 C 275.582 76.313,276.280 75.391,276.355 75.391 C 276.430 75.391,276.504 87.959,276.520 103.320 M168.155 80.566 C 166.337 83.198,162.255 89.256,159.085 94.028 L 153.320 102.704 138.965 102.719 C 131.069 102.728,124.609 102.664,124.609 102.578 C 124.609 102.493,126.851 101.171,129.590 99.641 C 132.329 98.111,142.744 92.131,152.734 86.351 C 162.725 80.572,171.025 75.829,171.180 75.812 C 171.335 75.795,169.974 77.935,168.155 80.566 M182.920 79.214 C 185.761 80.896,196.038 86.821,205.756 92.379 C 215.475 97.937,223.378 102.534,223.318 102.594 C 223.258 102.653,216.800 102.728,208.968 102.760 L 194.727 102.818 185.576 89.231 C 180.544 81.759,176.725 75.760,177.090 75.900 C 177.456 76.041,180.079 77.532,182.920 79.214 M274.336 76.288 C 274.164 76.566,270.070 82.631,265.238 89.764 L 256.452 102.734 241.996 102.733 L 227.539 102.731 228.906 101.896 C 229.658 101.436,236.250 97.623,243.555 93.423 C 250.859 89.222,260.703 83.546,265.430 80.809 C 274.146 75.763,274.893 75.384,274.336 76.288 M120.703 103.672 C 120.703 103.832,116.086 106.532,106.445 112.010 C 99.302 116.068,83.454 125.171,77.637 128.557 C 75.112 130.026,73.047 131.148,73.047 131.051 C 73.047 130.953,75.288 127.626,78.027 123.658 C 80.767 119.690,84.911 113.625,87.236 110.180 L 91.465 103.916 105.986 103.808 C 113.973 103.749,120.552 103.659,120.605 103.608 C 120.659 103.557,120.703 103.586,120.703 103.672 M161.317 115.912 C 165.728 122.407,169.940 128.547,170.679 129.554 C 171.417 130.562,171.857 131.290,171.655 131.172 C 171.454 131.054,168.389 129.283,164.844 127.237 C 161.299 125.190,154.180 121.068,149.023 118.076 C 143.867 115.084,136.396 110.816,132.422 108.592 C 128.447 106.368,125.026 104.402,124.819 104.222 C 124.613 104.043,130.936 103.943,138.871 103.999 L 153.299 104.102 161.317 115.912 M222.841 104.424 C 222.417 104.709,215.215 108.867,206.836 113.663 C 198.457 118.459,188.318 124.290,184.306 126.621 C 180.293 128.952,176.906 130.859,176.779 130.859 C 176.652 130.859,179.736 126.157,183.633 120.410 C 187.530 114.663,191.594 108.599,192.664 106.934 L 194.609 103.906 209.110 103.906 C 221.285 103.906,223.488 103.989,222.841 104.424 M262.816 113.396 C 266.320 118.597,270.537 124.783,272.187 127.143 L 275.187 131.434 273.433 130.410 C 263.505 124.612,233.563 107.330,228.320 104.371 C 227.729 104.037,231.060 103.931,241.992 103.935 L 256.445 103.941 262.816 113.396 M120.425 105.957 C 120.015 106.655,116.890 112.148,113.481 118.164 C 110.071 124.180,107.248 129.152,107.207 129.214 C 107.165 129.276,104.252 129.578,100.734 129.885 C 97.215 130.192,90.266 130.801,85.291 131.237 C 75.052 132.136,73.904 132.183,74.434 131.676 C 74.775 131.350,95.178 119.557,105.273 113.851 C 107.637 112.515,112.119 109.925,115.234 108.096 C 118.350 106.266,120.960 104.750,121.035 104.728 C 121.110 104.706,120.835 105.259,120.425 105.957 M131.836 109.382 C 134.629 110.959,140.693 114.437,145.313 117.112 C 149.932 119.786,155.996 123.294,158.789 124.907 C 166.688 129.468,170.490 131.709,170.703 131.929 C 170.811 132.041,169.492 132.021,167.773 131.887 C 155.739 130.945,140.564 129.668,139.258 129.488 C 137.494 129.245,138.313 130.455,130.274 116.211 C 127.970 112.129,125.554 107.848,124.905 106.699 L 123.726 104.609 125.242 105.561 C 126.076 106.085,129.043 107.805,131.836 109.382 M223.589 105.957 C 223.005 107.096,220.998 110.690,218.845 114.453 C 218.414 115.205,216.458 118.633,214.497 122.070 C 212.536 125.508,210.801 128.528,210.641 128.782 C 210.326 129.282,207.293 129.633,192.773 130.851 C 187.617 131.284,182.099 131.749,180.512 131.885 C 177.272 132.164,177.136 131.878,179.789 130.373 C 181.816 129.222,202.017 117.620,214.258 110.577 C 219.199 107.733,223.409 105.245,223.613 105.047 C 224.263 104.418,224.256 104.653,223.589 105.957 M237.347 110.675 C 242.695 113.753,249.443 117.648,252.344 119.331 C 255.244 121.013,260.936 124.301,264.992 126.638 C 275.110 132.466,274.782 132.156,270.508 131.852 C 263.162 131.329,243.496 129.668,242.188 129.460 C 240.917 129.258,240.657 128.947,238.506 125.070 C 237.234 122.776,234.706 118.262,232.888 115.039 C 227.524 105.527,227.279 105.078,227.455 105.078 C 227.548 105.078,231.999 107.597,237.347 110.675 M121.782 146.043 L 121.680 159.722 114.899 144.998 C 111.169 136.899,108.109 130.126,108.098 129.945 C 108.087 129.764,111.138 124.221,114.879 117.628 L 121.680 105.639 121.782 119.002 C 121.839 126.351,121.839 138.520,121.782 146.043 M230.462 112.695 C 232.247 115.918,235.169 121.119,236.956 124.253 L 240.204 129.952 233.975 143.394 C 230.549 150.787,227.403 157.539,226.983 158.398 L 226.220 159.961 226.196 132.628 C 226.176 109.691,226.256 105.419,226.694 106.065 C 226.982 106.489,228.677 109.473,230.462 112.695 M130.246 118.096 C 137.497 130.868,137.091 129.754,135.585 132.736 C 134.626 134.637,128.775 147.212,123.918 157.813 L 123.113 159.570 123.080 132.628 C 123.052 110.218,123.133 105.815,123.561 106.456 C 123.844 106.880,126.853 112.118,130.246 118.096 M225.316 132.849 C 225.250 147.438,225.140 159.374,225.072 159.374 C 225.005 159.375,224.237 157.837,223.367 155.957 C 222.496 154.077,221.292 151.484,220.692 150.195 C 217.945 144.302,213.511 134.722,212.443 132.373 L 211.267 129.784 214.662 123.779 C 216.529 120.476,219.562 115.102,221.403 111.836 C 223.243 108.571,224.903 105.995,225.093 106.112 C 225.287 106.232,225.384 117.840,225.316 132.849 M111.889 140.733 C 114.454 146.367,117.654 153.306,119.002 156.152 C 120.350 158.999,121.369 161.328,121.268 161.328 C 121.166 161.328,113.307 156.870,103.803 151.422 C 94.299 145.973,83.535 139.804,79.883 137.711 C 72.556 133.514,72.105 133.203,73.339 133.203 C 73.992 133.203,91.657 131.675,101.758 130.744 C 102.617 130.665,104.199 130.575,105.273 130.544 L 107.227 130.489 111.889 140.733 M146.094 131.047 C 149.424 131.363,156.623 131.984,162.091 132.427 C 167.560 132.869,172.076 133.274,172.128 133.326 C 172.179 133.377,167.881 135.902,162.576 138.935 C 147.464 147.576,130.179 157.525,126.823 159.514 C 125.140 160.512,123.700 161.328,123.623 161.328 C 123.433 161.328,126.020 155.544,131.049 144.727 C 133.347 139.785,135.777 134.556,136.450 133.105 C 137.883 130.016,137.070 130.189,146.094 131.047 M217.583 145.873 C 221.440 154.238,224.549 161.128,224.494 161.183 C 224.439 161.238,223.168 160.568,221.669 159.693 C 216.681 156.780,206.207 150.754,191.406 142.281 C 183.350 137.669,176.617 133.766,176.444 133.607 C 176.113 133.302,179.543 132.931,194.531 131.651 C 199.580 131.219,204.326 130.801,205.078 130.722 C 205.830 130.642,207.374 130.597,208.509 130.621 L 210.572 130.664 217.583 145.873 M251.392 131.228 C 255.890 131.645,262.119 132.177,265.234 132.410 C 276.550 133.255,276.166 133.178,274.157 134.201 C 272.911 134.836,249.779 148.124,234.302 157.097 C 227.042 161.305,226.112 161.772,226.856 160.840 C 227.070 160.571,228.655 157.275,230.378 153.516 C 237.752 137.419,240.344 131.795,240.683 131.152 C 241.134 130.296,241.373 130.298,251.392 131.228 M67.365 140.295 C 62.734 150.347,55.363 166.215,55.275 166.321 C 55.168 166.450,35.428 164.910,33.984 164.660 C 33.447 164.567,30.986 164.374,28.516 164.230 C 26.045 164.087,23.232 163.853,22.266 163.710 L 20.508 163.450 22.461 162.325 C 23.535 161.707,25.820 160.376,27.539 159.369 C 29.258 158.361,36.113 154.403,42.773 150.573 C 49.434 146.744,58.135 141.723,62.109 139.417 C 66.084 137.110,69.392 135.279,69.461 135.348 C 69.530 135.416,68.587 137.642,67.365 140.295 M84.031 142.232 C 90.773 146.123,98.486 150.575,101.172 152.125 C 121.110 163.632,121.169 163.669,119.652 163.675 C 119.263 163.676,111.748 164.291,102.950 165.042 C 94.153 165.792,86.716 166.406,86.425 166.406 C 86.133 166.406,85.448 165.396,84.903 164.160 C 83.725 161.490,71.867 135.872,71.614 135.449 C 71.278 134.888,71.846 135.199,84.031 142.232 M172.689 136.035 C 172.242 137.198,166.317 150.088,163.398 156.250 C 162.126 158.936,160.569 162.332,159.937 163.799 L 158.789 166.464 156.250 166.238 C 154.854 166.114,149.316 165.660,143.945 165.231 C 128.080 163.963,124.172 163.563,124.497 163.240 C 124.666 163.072,126.299 162.068,128.125 161.009 C 129.951 159.950,133.643 157.802,136.328 156.236 C 139.014 154.671,146.924 150.112,153.906 146.105 C 160.889 142.099,168.008 138.014,169.727 137.027 C 171.445 136.040,172.891 135.216,172.940 135.195 C 172.988 135.174,172.875 135.552,172.689 136.035 M287.109 140.233 C 291.084 142.526,297.061 145.991,300.391 147.934 C 303.721 149.878,310.752 153.965,316.016 157.018 C 328.237 164.105,327.754 163.455,321.216 164.022 C 318.248 164.279,312.041 164.826,307.422 165.239 C 302.803 165.651,297.527 166.103,295.699 166.243 L 292.374 166.499 290.272 161.863 C 289.116 159.313,287.072 154.854,285.731 151.953 C 279.528 138.541,278.125 135.471,278.125 135.306 C 278.125 135.069,278.720 135.395,287.109 140.233 M184.315 140.404 C 189.059 143.076,195.276 146.618,198.130 148.275 C 200.985 149.932,207.100 153.479,211.719 156.158 C 222.355 162.326,224.133 163.450,223.424 163.560 C 223.109 163.609,219.600 163.923,215.625 164.258 C 211.650 164.594,204.374 165.214,199.455 165.637 C 194.536 166.060,190.229 166.403,189.885 166.400 C 189.496 166.395,188.895 165.542,188.303 164.153 C 187.423 162.091,181.744 149.814,177.012 139.746 C 175.926 137.437,175.185 135.547,175.364 135.547 C 175.543 135.547,179.571 137.733,184.315 140.404 M274.834 138.379 C 274.108 139.937,270.949 146.696,267.812 153.399 C 264.676 160.103,262.109 165.772,262.109 165.997 C 262.109 166.568,230.421 164.178,228.155 163.436 C 227.531 163.231,227.281 163.383,247.070 151.950 C 268.563 139.533,275.559 135.548,275.869 135.547 C 276.025 135.547,275.559 136.821,274.834 138.379 M79.132 153.906 C 82.262 160.674,84.844 166.475,84.869 166.797 C 84.916 167.404,72.175 190.455,71.320 191.311 C 71.195 191.435,71.104 179.246,71.117 164.225 L 71.141 136.914 72.290 139.258 C 72.923 140.547,76.002 147.139,79.132 153.906 M280.188 142.188 C 281.377 144.873,284.388 151.455,286.879 156.813 C 292.233 168.336,291.974 166.220,288.739 171.996 C 281.264 185.340,278.354 190.464,278.059 190.801 C 277.881 191.005,277.734 178.979,277.734 164.076 C 277.734 149.173,277.800 137.052,277.879 137.142 C 277.959 137.231,278.998 139.502,280.188 142.188 M70.086 164.630 C 70.103 179.335,70.002 191.244,69.860 191.094 C 69.214 190.406,56.250 167.397,56.250 166.938 C 56.250 166.653,57.355 164.087,58.706 161.237 C 60.056 158.387,63.086 151.892,65.438 146.804 C 67.790 141.716,69.792 137.630,69.885 137.724 C 69.979 137.817,70.069 149.925,70.086 164.630 M173.532 165.295 C 173.587 179.615,173.512 191.258,173.365 191.167 C 173.128 191.020,168.374 182.739,161.955 171.292 C 159.229 166.431,158.874 168.293,165.066 154.964 C 167.982 148.689,171.014 142.153,171.805 140.439 C 173.591 136.569,173.410 133.962,173.532 165.295 M181.808 152.339 L 188.576 166.879 186.049 171.428 C 180.378 181.639,175.620 190.084,175.130 190.810 C 174.694 191.455,174.609 187.173,174.609 164.475 C 174.609 149.567,174.706 137.467,174.825 137.585 C 174.943 137.703,178.085 144.343,181.808 152.339 M276.470 177.955 L 276.367 191.457 269.942 180.006 C 266.408 173.708,263.298 168.203,263.030 167.773 C 262.604 167.090,263.058 165.892,266.657 158.203 C 268.920 153.369,272.031 146.702,273.569 143.388 L 276.367 137.361 276.470 150.907 C 276.526 158.357,276.526 170.529,276.470 177.955 M43.876 166.442 L 55.134 167.343 56.605 169.902 C 60.700 177.026,68.750 191.408,68.750 191.601 C 68.750 191.932,67.322 191.130,41.992 176.572 C 35.547 172.867,28.384 168.768,26.074 167.462 C 20.817 164.489,20.795 164.532,27.246 165.083 C 30.200 165.335,37.684 165.947,43.876 166.442 M119.316 164.807 C 119.112 165.002,113.496 168.275,106.836 172.081 C 95.025 178.830,92.772 180.132,79.181 188.062 C 75.572 190.167,72.558 191.825,72.484 191.746 C 72.410 191.666,73.607 189.404,75.145 186.719 C 76.683 184.033,79.696 178.636,81.841 174.724 C 85.038 168.896,85.918 167.577,86.719 167.416 C 87.256 167.308,93.320 166.764,100.195 166.208 C 110.753 165.354,117.662 164.739,119.316 164.505 C 119.551 164.472,119.551 164.584,119.316 164.807 M222.252 164.995 C 221.705 165.513,214.044 170.008,197.070 179.770 C 192.773 182.242,186.294 185.968,182.671 188.052 C 179.049 190.135,176.044 191.786,175.994 191.721 C 175.944 191.655,178.940 186.152,182.652 179.492 L 189.401 167.383 195.775 166.885 C 202.216 166.382,222.307 164.603,222.642 164.506 C 222.742 164.477,222.566 164.697,222.252 164.995 M326.139 164.612 C 326.050 164.700,321.934 167.097,316.992 169.940 C 306.317 176.082,300.107 179.667,292.969 183.808 C 283.598 189.244,279.114 191.744,278.977 191.607 C 278.904 191.534,279.885 189.657,281.158 187.436 C 282.431 185.215,285.343 180.059,287.630 175.977 C 289.917 171.895,291.950 168.305,292.149 168.000 C 292.426 167.575,296.404 167.105,309.049 166.000 C 318.144 165.205,325.747 164.532,325.944 164.504 C 326.141 164.476,326.229 164.525,326.139 164.612 M145.247 166.289 L 158.657 167.370 160.064 169.915 C 160.837 171.315,163.906 176.746,166.883 181.984 C 169.860 187.221,172.222 191.580,172.132 191.670 C 171.986 191.816,162.921 186.695,148.828 178.504 C 146.143 176.943,140.430 173.638,136.133 171.160 C 131.836 168.682,127.617 166.232,126.758 165.717 L 125.195 164.779 128.516 164.994 C 130.342 165.112,137.871 165.695,145.247 166.289 M244.727 165.999 C 258.716 167.202,260.718 167.363,261.218 167.320 C 261.479 167.297,264.105 171.609,267.052 176.901 C 270.000 182.193,273.169 187.812,274.096 189.387 L 275.780 192.251 274.511 191.476 C 273.813 191.050,271.133 189.487,268.555 188.001 C 254.185 179.722,229.074 165.119,228.906 164.945 C 228.674 164.704,233.061 164.996,244.727 165.999 M23.190 170.605 C 25.068 173.345,29.148 179.277,32.255 183.789 C 39.252 193.948,39.003 193.474,38.120 194.969 C 37.288 196.377,20.371 221.127,19.876 221.660 C 19.677 221.875,19.531 210.137,19.531 193.828 C 19.531 178.316,19.586 165.625,19.653 165.625 C 19.720 165.625,21.312 167.866,23.190 170.605 M121.825 193.750 C 121.771 209.219,121.629 221.868,121.508 221.860 C 121.259 221.843,121.095 221.605,110.272 205.570 L 102.300 193.758 110.402 181.742 C 114.858 175.134,119.124 168.804,119.882 167.676 C 120.640 166.548,121.410 165.625,121.592 165.625 C 121.774 165.625,121.879 178.281,121.825 193.750 M127.032 171.094 C 128.843 173.779,133.021 179.992,136.315 184.900 L 142.304 193.823 133.449 206.970 C 128.579 214.201,124.250 220.557,123.829 221.094 C 123.068 222.066,123.064 221.941,123.056 193.770 C 123.051 177.353,123.192 165.625,123.392 165.840 C 123.582 166.044,125.220 168.408,127.032 171.094 M138.832 173.919 C 163.189 188.004,166.265 189.772,169.238 191.391 C 170.903 192.298,172.266 193.067,172.266 193.102 C 172.266 193.136,165.718 193.189,157.715 193.219 L 143.164 193.275 142.165 191.852 C 140.878 190.021,125.261 166.789,124.796 166.016 C 124.538 165.585,124.742 165.624,125.566 166.163 C 126.182 166.566,132.152 170.057,138.832 173.919 M224.907 208.233 L 224.805 222.268 215.274 208.003 L 205.742 193.737 211.909 184.466 C 215.301 179.367,219.590 172.998,221.440 170.313 L 224.805 165.430 224.907 179.814 C 224.964 187.725,224.964 200.514,224.907 208.233 M244.677 192.283 L 245.720 193.651 236.630 207.173 C 231.630 214.610,227.330 221.005,227.074 221.383 C 226.712 221.918,226.603 215.797,226.585 193.776 L 226.563 165.481 235.098 178.199 C 239.793 185.193,244.103 191.531,244.677 192.283 M327.930 193.731 C 327.930 209.189,327.823 221.713,327.693 221.563 C 326.946 220.700,323.664 215.974,318.553 208.398 C 315.363 203.672,311.823 198.439,310.685 196.771 L 308.616 193.737 314.321 185.247 C 319.667 177.290,327.719 165.625,327.865 165.625 C 327.900 165.625,327.930 178.273,327.930 193.731 M30.078 170.911 C 47.277 180.772,64.624 190.669,66.447 191.661 C 67.499 192.234,68.359 192.807,68.359 192.936 C 68.359 193.065,61.905 193.168,54.017 193.167 L 39.675 193.164 34.907 186.133 C 32.285 182.266,28.236 176.316,25.909 172.912 C 21.716 166.777,21.063 165.715,21.727 166.113 C 21.916 166.227,25.674 168.385,30.078 170.911 M115.590 172.363 C 113.221 175.854,109.065 182.012,106.356 186.046 L 101.431 193.382 87.056 193.313 C 79.150 193.275,72.767 193.106,72.871 192.937 C 72.976 192.767,73.981 192.124,75.105 191.507 C 76.229 190.891,80.928 188.201,85.547 185.530 C 105.651 173.905,119.356 166.065,119.617 166.041 C 119.772 166.027,117.960 168.872,115.590 172.363 M222.402 167.097 C 210.043 185.609,205.660 192.115,205.179 192.663 C 204.525 193.408,176.172 193.661,176.172 192.923 C 176.172 192.733,176.318 192.578,176.496 192.578 C 176.675 192.578,181.201 190.060,186.555 186.983 C 200.236 179.119,213.928 171.219,218.748 168.407 C 223.496 165.637,223.338 165.694,222.402 167.097 M230.078 166.854 C 230.830 167.314,236.016 170.325,241.602 173.545 C 247.187 176.765,253.252 180.294,255.078 181.388 C 256.904 182.481,262.143 185.515,266.719 188.129 C 276.566 193.756,277.450 193.164,259.200 193.164 L 246.331 193.164 237.206 179.590 C 232.187 172.124,228.223 166.016,228.396 166.017 C 228.569 166.018,229.326 166.395,230.078 166.854 M325.012 168.036 C 322.049 172.107,320.524 174.317,314.295 183.566 L 307.692 193.371 293.495 193.267 C 285.686 193.211,279.302 193.076,279.308 192.969 C 279.314 192.861,285.591 189.170,293.257 184.766 C 330.670 163.272,327.118 165.143,325.012 168.036 M64.749 196.591 C 62.442 197.929,56.578 201.309,51.719 204.102 C 46.860 206.895,38.117 211.938,32.291 215.309 C 26.465 218.680,21.635 221.374,21.557 221.297 C 21.480 221.219,24.357 216.889,27.952 211.674 C 31.547 206.460,35.533 200.601,36.810 198.655 C 38.087 196.709,39.314 194.897,39.536 194.629 C 39.846 194.254,43.307 194.143,54.442 194.149 L 68.945 194.158 64.749 196.591 M110.591 207.715 C 115.648 215.181,119.744 221.347,119.692 221.418 C 119.641 221.489,117.957 220.593,115.952 219.426 C 104.199 212.589,98.587 209.345,87.891 203.200 C 81.338 199.437,75.229 195.931,74.316 195.411 C 73.403 194.890,72.656 194.392,72.656 194.303 C 72.656 194.213,79.123 194.141,87.026 194.141 L 101.395 194.141 110.591 207.715 M168.359 196.529 C 147.569 208.597,127.852 220.037,126.262 220.955 C 124.666 221.875,124.994 221.319,133.879 208.047 L 143.164 194.178 157.813 194.163 L 172.461 194.148 168.359 196.529 M214.149 208.033 C 219.245 215.664,223.288 221.834,223.133 221.745 C 222.978 221.656,219.424 219.567,215.234 217.103 C 206.782 212.131,201.865 209.284,186.914 200.705 C 181.328 197.500,176.591 194.712,176.387 194.509 C 176.154 194.278,181.399 194.144,190.449 194.150 L 204.883 194.159 214.149 208.033 M274.785 194.479 C 274.254 194.964,228.612 221.484,228.309 221.484 C 228.170 221.484,228.835 220.386,229.787 219.043 C 230.739 217.700,234.892 211.548,239.015 205.371 L 246.512 194.141 260.834 194.141 C 268.947 194.141,274.995 194.288,274.785 194.479 M314.290 203.809 C 317.895 209.126,322.141 215.363,323.727 217.668 L 326.611 221.860 324.340 220.567 C 322.113 219.299,317.650 216.727,294.531 203.394 C 288.193 199.738,282.085 196.236,280.957 195.610 C 279.829 194.984,278.906 194.398,278.906 194.307 C 278.906 194.215,285.393 194.141,293.321 194.141 L 307.735 194.141 314.290 203.809 M65.363 201.855 C 63.314 205.454,60.169 211.043,58.375 214.274 L 55.113 220.150 53.631 220.237 C 52.815 220.285,50.039 220.502,47.461 220.721 C 23.665 222.736,21.907 222.848,22.480 222.305 C 22.935 221.876,31.119 217.085,45.117 209.056 C 50.918 205.728,57.334 202.040,59.375 200.860 C 66.441 196.775,68.946 195.336,69.017 195.325 C 69.057 195.318,67.412 198.257,65.363 201.855 M90.820 206.047 C 116.293 220.704,120.848 223.438,118.945 222.924 C 118.516 222.808,110.910 222.132,102.044 221.423 L 85.925 220.133 79.537 208.602 C 76.024 202.259,72.955 196.694,72.716 196.233 C 72.255 195.343,71.593 194.984,90.820 206.047 M294.922 204.767 C 299.971 207.676,306.299 211.328,308.984 212.882 C 311.670 214.436,316.458 217.196,319.624 219.015 C 325.823 222.577,326.496 223.100,324.520 222.818 C 322.828 222.577,300.806 220.718,296.159 220.424 L 292.513 220.194 291.637 218.788 C 291.154 218.015,288.426 213.164,285.573 208.008 C 282.721 202.852,279.962 197.892,279.443 196.986 L 278.499 195.340 282.120 197.409 C 284.112 198.547,289.873 201.858,294.922 204.767 M70.229 222.852 C 70.254 237.783,70.133 250.000,69.961 250.000 C 69.788 250.000,69.111 248.813,68.454 247.363 C 67.798 245.913,64.774 239.371,61.734 232.825 C 58.174 225.158,56.280 220.642,56.411 220.130 C 56.523 219.693,57.954 216.963,59.590 214.063 C 65.606 203.398,70.009 195.703,70.096 195.703 C 70.145 195.703,70.205 207.920,70.229 222.852 M74.978 202.344 C 76.547 205.244,79.479 210.537,81.493 214.106 L 85.157 220.594 82.767 225.629 C 79.033 233.496,71.875 249.268,71.875 249.629 C 71.875 249.808,71.699 250.063,71.484 250.195 C 71.225 250.355,71.094 241.186,71.094 222.983 C 71.094 200.089,71.180 195.657,71.610 196.300 C 71.894 196.724,73.410 199.443,74.978 202.344 M170.834 198.340 C 170.025 199.790,166.955 205.283,164.012 210.547 L 158.660 220.117 143.881 221.382 C 135.752 222.077,128.322 222.604,127.369 222.553 L 125.636 222.461 130.103 219.893 C 137.628 215.568,166.445 198.850,169.141 197.246 C 172.498 195.248,172.542 195.276,170.834 198.340 M184.499 213.601 C 189.022 221.693,189.006 219.515,184.614 228.997 C 182.597 233.351,179.584 239.902,177.919 243.555 C 176.254 247.207,174.828 250.269,174.750 250.358 C 174.673 250.448,174.610 238.143,174.610 223.014 L 174.610 195.508 177.664 201.172 C 179.343 204.287,182.419 209.880,184.499 213.601 M185.261 200.921 C 219.910 220.841,223.900 223.246,221.667 222.862 C 221.030 222.752,216.992 222.392,212.695 222.063 C 208.398 221.733,203.652 221.355,202.148 221.223 C 200.645 221.090,197.134 220.787,194.347 220.549 L 189.280 220.117 184.172 210.938 C 176.869 197.811,175.735 195.703,175.973 195.703 C 176.090 195.703,180.269 198.051,185.261 200.921 M274.681 196.973 C 274.256 197.671,272.691 200.439,271.203 203.125 C 265.010 214.304,261.920 219.739,261.645 219.937 C 261.485 220.053,258.580 220.375,255.189 220.652 C 251.798 220.930,244.497 221.545,238.965 222.018 C 228.267 222.933,227.991 222.916,230.566 221.491 C 231.479 220.986,235.742 218.506,240.039 215.980 C 257.734 205.577,274.821 195.703,275.127 195.703 C 275.307 195.703,275.107 196.274,274.681 196.973 M276.530 223.145 L 276.497 250.586 275.490 248.438 C 267.293 230.958,262.822 221.193,262.796 220.710 C 262.777 220.384,265.780 214.774,269.467 208.244 C 273.155 201.713,276.172 196.220,276.172 196.037 C 276.172 195.853,276.260 195.703,276.367 195.703 C 276.475 195.703,276.548 208.052,276.530 223.145 M173.345 236.788 L 173.242 250.586 167.810 238.672 C 164.822 232.119,161.790 225.576,161.071 224.131 C 159.311 220.590,158.947 221.665,166.504 208.095 L 173.242 195.995 173.345 209.492 C 173.401 216.916,173.401 229.199,173.345 236.788 M290.910 219.577 C 291.493 220.565,291.398 220.850,288.090 227.976 C 286.208 232.032,283.182 238.604,281.367 242.578 C 277.943 250.077,277.155 251.464,277.483 249.414 C 277.586 248.770,277.685 236.472,277.702 222.086 L 277.734 195.930 284.020 207.242 C 287.477 213.464,290.577 219.015,290.910 219.577 M58.179 227.448 C 64.799 241.893,66.903 246.442,68.294 249.316 C 69.099 250.981,69.705 252.344,69.639 252.344 C 69.573 252.344,65.962 250.295,61.615 247.791 C 57.268 245.288,49.580 240.863,44.531 237.960 C 39.482 235.056,34.385 232.117,33.203 231.428 C 28.452 228.659,21.311 224.616,20.922 224.475 C 19.748 224.051,46.197 221.370,53.711 221.152 L 55.273 221.106 58.179 227.448 M93.555 221.683 C 97.207 221.998,104.678 222.630,110.156 223.089 C 115.635 223.547,120.190 223.988,120.280 224.070 C 120.528 224.296,121.050 223.985,105.273 233.017 C 88.791 242.453,78.975 248.110,74.707 250.632 C 73.149 251.552,71.875 252.164,71.875 251.991 C 71.875 251.697,78.353 237.351,82.034 229.492 C 82.940 227.559,84.181 224.878,84.793 223.535 C 85.404 222.192,86.132 221.097,86.409 221.102 C 86.687 221.106,89.902 221.368,93.555 221.683 M161.056 226.367 C 162.334 229.160,164.962 234.873,166.897 239.063 C 168.831 243.252,171.007 247.965,171.731 249.535 C 172.456 251.106,172.916 252.317,172.755 252.226 C 172.593 252.136,169.121 250.127,165.039 247.764 C 153.079 240.838,132.948 229.249,128.609 226.792 C 124.227 224.310,123.667 223.828,125.168 223.828 C 126.078 223.828,144.536 222.286,152.930 221.509 C 159.051 220.943,158.396 220.551,161.056 226.367 M200.781 222.050 C 206.689 222.571,214.315 223.220,217.728 223.493 C 224.832 224.061,224.764 223.671,218.405 227.395 C 197.983 239.356,175.740 252.042,175.540 251.842 C 175.429 251.731,177.695 246.480,180.577 240.175 C 183.459 233.870,186.591 227.001,187.537 224.912 C 188.484 222.822,189.434 221.110,189.648 221.107 C 189.863 221.105,194.873 221.529,200.781 222.050 M262.709 223.236 C 263.816 225.738,270.361 239.783,273.770 246.973 C 275.070 249.712,276.003 251.953,275.845 251.953 C 275.687 251.953,270.994 249.323,265.416 246.109 C 259.837 242.894,249.082 236.698,241.515 232.339 C 233.948 227.980,227.751 224.307,227.745 224.177 C 227.739 224.046,230.503 223.712,233.887 223.434 C 237.271 223.155,244.258 222.538,249.414 222.061 C 262.938 220.811,261.584 220.692,262.709 223.236 M300.406 221.671 C 308.221 222.333,319.476 223.321,323.959 223.738 L 327.020 224.023 320.053 228.162 C 307.943 235.355,278.378 252.337,278.227 252.186 C 277.836 251.794,292.389 221.094,292.966 221.094 C 293.306 221.094,296.654 221.354,300.406 221.671 M119.939 229.395 C 119.117 231.167,117.014 235.693,115.265 239.453 C 113.516 243.213,110.992 248.701,109.656 251.648 C 107.326 256.789,107.179 257.008,106.055 257.021 C 104.379 257.040,76.314 254.704,74.268 254.375 L 72.560 254.100 80.128 249.660 C 84.290 247.218,91.563 243.010,96.289 240.308 C 101.016 237.607,108.486 233.330,112.891 230.804 C 117.295 228.278,121.019 226.202,121.166 226.191 C 121.313 226.181,120.761 227.622,119.939 229.395 M125.658 227.312 C 126.692 227.939,131.670 230.803,136.719 233.676 C 141.768 236.549,151.829 242.320,159.078 246.500 L 172.257 254.102 170.406 254.375 C 168.080 254.719,140.631 257.031,138.880 257.031 C 137.749 257.031,137.510 256.846,136.993 255.566 C 136.668 254.761,134.874 250.850,133.006 246.875 C 122.498 224.519,123.249 226.172,123.607 226.172 C 123.700 226.172,124.623 226.685,125.658 227.312 M224.448 226.811 C 224.313 227.162,221.100 234.105,217.307 242.240 L 210.411 257.031 209.081 257.031 C 208.350 257.031,205.700 256.856,203.192 256.642 C 200.685 256.428,194.133 255.894,188.632 255.455 C 179.332 254.713,176.552 254.417,176.274 254.138 C 176.213 254.077,182.801 250.199,190.913 245.519 C 199.026 240.839,209.795 234.587,214.844 231.625 C 224.497 225.963,224.839 225.791,224.448 226.811 M236.523 231.625 C 255.404 242.483,274.337 253.515,274.732 253.889 C 275.125 254.261,270.226 254.782,253.970 256.097 C 246.957 256.664,241.207 256.969,241.044 256.782 C 240.776 256.475,230.027 233.490,227.867 228.606 C 226.885 226.386,226.790 226.033,227.246 226.292 C 227.407 226.384,231.582 228.784,236.523 231.625 M228.853 233.035 C 230.119 235.813,233.200 242.465,235.700 247.818 L 240.244 257.550 233.935 268.716 C 230.465 274.858,227.302 280.410,226.905 281.055 C 226.201 282.201,226.185 281.623,226.178 254.915 C 226.175 239.894,226.257 227.690,226.362 227.794 C 226.466 227.898,227.587 230.257,228.853 233.035 M121.782 268.568 L 121.680 282.058 115.184 270.619 C 111.611 264.327,108.505 258.822,108.282 258.385 C 107.945 257.727,108.614 256.015,112.170 248.424 C 114.533 243.383,117.351 237.324,118.434 234.961 C 119.516 232.598,120.689 230.049,121.041 229.297 C 121.762 227.755,121.998 240.271,121.782 268.568 M225.298 268.604 L 225.195 282.130 218.262 270.005 C 214.448 263.337,211.328 257.764,211.328 257.621 C 211.328 257.285,219.326 240.111,223.972 230.469 L 225.195 227.930 225.298 241.504 C 225.355 248.970,225.355 261.165,225.298 268.604 M127.369 237.143 C 136.511 256.603,136.853 257.402,136.435 258.320 C 136.219 258.793,133.700 263.311,130.838 268.359 C 127.976 273.408,125.056 278.594,124.349 279.883 L 123.065 282.227 123.056 255.306 C 123.051 240.500,123.135 228.474,123.243 228.582 C 123.351 228.690,125.208 232.542,127.369 237.143 M93.164 257.022 C 105.127 258.011,106.900 258.241,107.352 258.861 C 108.245 260.087,120.674 282.190,120.544 282.321 C 120.476 282.389,117.803 280.926,114.604 279.069 C 111.406 277.212,101.934 271.780,93.555 266.998 C 85.176 262.215,77.266 257.655,75.977 256.862 L 73.633 255.422 76.563 255.657 C 78.174 255.786,85.645 256.400,93.164 257.022 M169.083 256.624 C 166.913 257.987,130.422 278.954,127.344 280.606 C 126.162 281.241,124.862 282.041,124.454 282.384 C 123.622 283.085,124.099 282.192,132.209 267.888 L 137.661 258.273 139.631 258.047 C 140.715 257.922,143.184 257.705,145.117 257.565 C 147.051 257.424,153.027 256.919,158.398 256.442 C 163.770 255.965,168.779 255.554,169.531 255.529 L 170.898 255.484 169.083 256.624 M195.865 257.043 C 203.796 257.680,210.369 258.286,210.472 258.389 C 210.829 258.746,224.139 282.227,224.043 282.330 C 223.990 282.387,218.778 279.476,212.461 275.862 C 206.145 272.247,198.779 268.044,196.094 266.522 C 188.041 261.959,178.763 256.571,177.930 255.974 C 177.226 255.470,177.362 255.438,179.297 255.650 C 180.479 255.779,187.934 256.406,195.865 257.043 M273.828 255.630 C 273.828 255.811,259.666 264.057,248.242 270.529 C 244.160 272.842,238.355 276.175,235.341 277.937 C 232.327 279.698,229.273 281.444,228.554 281.816 L 227.246 282.492 228.424 280.406 C 229.071 279.259,231.226 275.420,233.212 271.875 C 235.198 268.330,237.772 263.811,238.933 261.831 C 241.366 257.683,240.494 258.058,249.219 257.401 C 252.334 257.166,258.486 256.656,262.891 256.268 C 271.465 255.512,273.828 255.374,273.828 255.630 M76.772 263.672 C 79.308 267.432,83.463 273.518,86.005 277.197 C 88.546 280.876,90.625 284.010,90.625 284.161 C 90.625 284.407,86.269 290.892,75.172 307.166 L 71.484 312.573 71.484 284.334 C 71.484 268.449,71.632 256.256,71.822 256.465 C 72.007 256.669,74.235 259.912,76.772 263.672 M97.656 270.505 C 110.010 277.543,120.190 283.367,120.280 283.447 C 120.369 283.528,113.944 283.594,106.001 283.594 L 91.560 283.594 87.050 277.051 C 84.570 273.452,80.994 268.223,79.104 265.430 C 77.214 262.637,75.078 259.537,74.357 258.541 C 72.766 256.343,72.709 255.959,74.121 256.953 C 74.712 257.368,85.303 263.467,97.656 270.505 M173.151 284.316 C 173.201 299.602,173.154 312.103,173.047 312.096 C 172.939 312.089,171.357 309.852,169.531 307.127 C 167.705 304.401,163.453 298.137,160.082 293.206 L 153.952 284.240 160.700 274.249 C 170.825 259.258,172.842 256.326,172.955 256.429 C 173.012 256.480,173.100 269.030,173.151 284.316 M183.285 268.359 C 187.253 274.268,191.231 280.141,192.125 281.412 C 193.019 282.683,193.747 283.914,193.744 284.147 C 193.737 284.653,175.583 311.554,175.009 311.909 C 174.891 311.982,174.796 299.493,174.799 284.157 C 174.804 258.441,174.854 256.324,175.437 256.945 C 175.785 257.315,179.316 262.451,183.285 268.359 M276.563 284.437 L 276.563 312.625 273.471 308.168 C 271.771 305.717,267.403 299.316,263.764 293.945 L 257.149 284.180 263.925 274.219 C 274.684 258.403,276.176 256.250,276.375 256.250 C 276.478 256.250,276.563 268.934,276.563 284.437 M166.362 264.160 C 163.549 268.296,159.477 274.360,157.313 277.637 L 153.380 283.594 138.701 283.576 L 124.023 283.559 125.586 282.738 C 128.658 281.124,161.664 262.209,167.773 258.562 C 169.492 257.536,171.029 256.684,171.188 256.669 C 171.348 256.653,169.176 260.024,166.362 264.160 M180.219 258.549 C 181.968 259.599,192.275 265.512,203.125 271.688 C 213.975 277.865,223.019 283.071,223.223 283.256 C 223.432 283.446,217.280 283.594,209.128 283.594 L 194.662 283.594 186.296 271.215 C 175.955 255.915,176.429 256.641,176.763 256.641 C 176.915 256.641,178.471 257.499,180.219 258.549 M273.964 257.756 C 273.567 258.369,269.471 264.433,264.861 271.232 L 256.480 283.594 242.018 283.594 L 227.557 283.594 234.189 279.738 C 237.836 277.617,246.973 272.368,254.492 268.073 C 262.012 263.778,269.482 259.464,271.094 258.486 C 274.575 256.374,274.915 256.288,273.964 257.756 M119.701 285.126 C 119.500 285.317,114.326 288.320,108.203 291.798 C 102.080 295.276,92.588 300.723,87.109 303.902 C 81.631 307.081,76.445 310.071,75.586 310.547 C 74.727 311.022,73.804 311.590,73.535 311.808 C 72.646 312.530,73.027 311.713,74.539 309.651 C 75.359 308.533,79.510 302.478,83.763 296.196 L 91.497 284.775 105.612 284.673 C 120.332 284.566,120.290 284.565,119.701 285.126 M140.186 284.775 L 153.320 284.785 156.110 288.974 C 157.644 291.279,161.744 297.350,165.221 302.467 C 170.589 310.365,171.358 311.673,170.316 311.135 C 169.150 310.531,159.409 304.960,148.828 298.843 C 146.143 297.290,139.595 293.541,134.277 290.512 C 124.914 285.177,123.267 284.009,125.830 284.521 C 126.501 284.656,132.961 284.770,140.186 284.775 M223.405 284.922 C 223.315 285.009,219.639 287.141,215.234 289.661 C 197.171 299.996,183.313 307.982,181.941 308.847 C 181.140 309.352,180.389 309.766,180.273 309.766 C 180.157 309.766,179.346 310.218,178.471 310.770 C 176.636 311.929,176.248 311.845,177.270 310.509 C 177.664 309.993,181.739 303.989,186.324 297.168 L 194.660 284.766 209.114 284.766 C 217.063 284.766,223.494 284.836,223.405 284.922 M261.793 292.680 C 264.735 297.028,268.941 303.209,271.141 306.414 C 273.341 309.620,274.978 312.149,274.778 312.034 C 274.578 311.919,271.426 310.066,267.773 307.917 C 260.281 303.508,248.726 296.869,238.867 291.309 C 235.215 289.249,231.182 286.934,229.906 286.165 L 227.585 284.766 242.015 284.770 L 256.445 284.774 261.793 292.680 M120.166 287.207 C 116.872 292.900,107.443 309.504,107.345 309.786 C 107.280 309.973,103.975 310.399,100.000 310.733 C 81.460 312.291,78.552 312.549,76.270 312.838 C 72.966 313.257,73.069 313.144,79.209 309.606 C 82.158 307.907,87.646 304.728,91.406 302.541 C 95.166 300.354,102.549 296.127,107.813 293.147 C 113.076 290.167,118.164 287.238,119.119 286.638 C 120.075 286.038,120.917 285.547,120.991 285.547 C 121.066 285.547,120.694 286.294,120.166 287.207 M137.695 293.633 C 166.393 310.096,170.717 312.616,170.547 312.786 C 170.450 312.884,167.237 312.681,163.408 312.336 C 159.578 311.991,152.239 311.368,147.097 310.953 C 140.516 310.421,137.657 310.047,137.437 309.689 C 137.035 309.032,126.942 291.219,125.087 287.891 C 124.308 286.494,123.926 285.551,124.238 285.795 C 124.550 286.039,130.605 289.566,137.695 293.633 M222.721 288.520 C 213.525 304.798,210.782 309.615,210.565 309.864 C 210.351 310.111,204.005 310.707,179.886 312.743 C 176.258 313.050,174.800 313.972,207.422 295.319 C 213.545 291.818,219.785 288.211,221.289 287.304 C 224.633 285.288,224.575 285.239,222.721 288.520 M232.884 288.986 C 235.745 290.662,241.162 293.772,244.922 295.895 C 248.682 298.019,253.604 300.836,255.859 302.156 C 258.115 303.475,263.114 306.376,266.967 308.601 C 270.820 310.826,273.761 312.718,273.502 312.804 C 273.242 312.891,269.650 312.669,265.519 312.312 C 261.388 311.955,254.251 311.341,249.660 310.946 C 243.962 310.457,241.157 310.063,240.824 309.705 C 240.006 308.826,227.173 285.938,227.499 285.938 C 227.599 285.938,230.022 287.309,232.884 288.986 M121.782 326.937 L 121.680 340.650 119.445 335.852 C 118.215 333.214,115.104 326.494,112.530 320.920 L 107.849 310.786 109.491 307.818 C 110.394 306.186,113.506 300.698,116.406 295.624 L 121.680 286.397 121.782 299.811 C 121.839 307.188,121.839 319.395,121.782 326.937 M123.438 286.666 C 123.438 286.852,126.426 292.253,130.078 298.667 C 133.730 305.082,136.719 310.534,136.719 310.784 C 136.719 311.033,135.163 314.554,133.262 318.607 C 129.503 326.622,126.030 334.076,124.245 337.961 L 123.111 340.430 122.981 313.379 C 122.910 298.501,122.983 286.328,123.145 286.328 C 123.306 286.328,123.438 286.480,123.438 286.666 M234.207 300.177 C 237.392 305.752,239.974 310.586,239.944 310.919 C 239.915 311.251,237.527 316.621,234.638 322.852 C 227.222 338.849,226.561 340.234,226.355 340.234 C 226.254 340.234,226.176 328.062,226.180 313.184 L 226.189 286.133 227.302 288.086 C 227.914 289.160,231.021 294.601,234.207 300.177 M225.375 313.770 C 225.380 328.257,225.233 339.844,225.045 339.844 C 224.858 339.844,224.341 339.009,223.895 337.988 C 223.450 336.968,221.350 332.441,219.230 327.930 C 217.110 323.418,214.449 317.674,213.318 315.165 L 211.260 310.603 218.032 298.721 C 221.831 292.056,224.928 287.026,225.086 287.267 C 225.240 287.502,225.370 299.429,225.375 313.770 M108.771 314.941 C 109.701 316.929,112.437 322.861,114.851 328.125 C 117.265 333.389,119.748 338.706,120.368 339.941 C 120.988 341.177,121.408 342.188,121.301 342.188 C 120.873 342.188,73.515 315.031,72.871 314.417 C 72.641 314.197,72.715 314.063,73.066 314.063 C 73.378 314.064,78.379 313.628,84.180 313.094 C 100.190 311.620,102.351 311.441,104.810 311.382 L 107.081 311.328 108.771 314.941 M157.031 312.716 C 170.230 313.821,172.058 314.041,171.611 314.470 C 171.434 314.640,165.400 318.165,158.203 322.303 C 123.806 342.079,122.583 342.754,123.721 341.318 C 123.938 341.044,124.858 339.150,125.765 337.109 C 126.673 335.068,129.721 328.410,132.539 322.313 L 137.663 311.228 141.586 311.490 C 143.743 311.634,150.693 312.186,157.031 312.716 M211.529 313.574 C 212.120 314.810,213.968 318.809,215.636 322.461 C 217.304 326.113,220.006 331.986,221.642 335.512 C 223.277 339.037,224.562 341.975,224.498 342.039 C 224.365 342.171,196.446 326.270,184.961 319.522 C 183.242 318.512,180.548 316.943,178.974 316.034 C 177.399 315.126,176.173 314.322,176.249 314.246 C 176.324 314.171,180.425 313.740,185.361 313.290 C 190.297 312.839,196.885 312.237,200.000 311.951 C 203.115 311.666,206.742 311.409,208.060 311.380 L 210.455 311.328 211.529 313.574 M252.148 312.102 C 277.633 314.267,276.110 314.062,274.157 315.069 C 273.439 315.440,266.611 319.344,258.984 323.746 C 246.225 331.109,231.292 339.699,228.223 341.441 C 226.673 342.320,226.674 342.367,228.167 339.144 C 232.681 329.397,234.261 325.967,237.114 319.727 C 238.881 315.859,240.488 312.388,240.685 312.012 C 241.129 311.165,241.115 311.165,252.148 312.102 M385.461 383.608 C 385.091 384.257,384.257 385.091,383.608 385.461 C 382.958 385.830,382.427 386.221,382.427 386.328 C 382.427 386.436,382.958 386.826,383.608 387.195 C 384.257 387.565,385.091 388.399,385.461 389.048 C 385.830 389.698,386.221 390.229,386.328 390.229 C 386.436 390.229,386.826 389.698,387.195 389.048 C 387.565 388.399,388.399 387.565,389.048 387.195 C 389.698 386.826,390.229 386.436,390.229 386.328 C 390.229 386.221,389.698 385.830,389.048 385.461 C 388.399 385.091,387.565 384.257,387.195 383.608 C 386.826 382.958,386.436 382.427,386.328 382.427 C 386.221 382.427,385.830 382.958,385.461 383.608 " stroke="none" fill="#ffffff" fill-rule="evenodd"></path><path id="path1" d="M0.000 200.000 L 0.000 400.000 200.000 400.000 L 400.000 400.000 400.000 200.000 L 400.000 0.000 200.000 0.000 L 0.000 0.000 0.000 200.000 M131.273 48.369 C 142.869 54.995,154.066 61.465,164.966 67.837 C 169.867 70.703,173.972 73.047,174.088 73.047 C 174.203 73.047,179.246 70.167,185.293 66.648 C 195.318 60.814,204.197 55.689,219.990 46.621 L 225.721 43.330 245.100 54.480 C 255.758 60.613,266.626 66.887,269.251 68.424 C 271.876 69.961,274.727 71.624,275.586 72.121 L 277.148 73.025 277.344 103.355 L 277.539 133.686 286.914 139.054 C 297.768 145.268,312.507 153.817,322.168 159.502 L 328.906 163.467 328.906 193.748 L 328.906 224.029 327.051 225.161 C 323.863 227.105,305.421 237.838,292.773 245.109 C 286.113 248.938,279.917 252.501,279.004 253.026 L 277.344 253.980 277.341 284.119 L 277.339 314.258 276.267 314.877 C 263.743 322.112,254.402 327.482,241.546 334.837 L 225.865 343.808 224.163 342.941 C 220.965 341.311,203.301 331.228,181.151 318.390 C 177.337 316.179,173.968 314.466,173.664 314.582 C 173.360 314.699,166.901 318.379,159.310 322.760 C 151.719 327.141,140.340 333.677,134.025 337.283 L 122.541 343.840 121.134 343.169 C 118.916 342.112,76.118 317.617,72.170 315.145 L 70.317 313.984 70.217 283.881 L 70.117 253.777 65.039 250.865 C 40.306 236.684,25.315 228.012,21.189 225.497 L 18.355 223.770 18.455 193.650 L 18.555 163.531 20.508 162.376 C 21.582 161.741,28.525 157.714,35.938 153.429 C 43.350 149.143,54.116 142.904,59.863 139.564 L 70.312 133.492 70.312 103.688 C 70.312 77.746,70.388 73.808,70.897 73.299 C 71.455 72.741,85.727 64.373,105.469 53.028 C 110.518 50.126,116.318 46.772,118.359 45.574 C 120.400 44.376,122.169 43.388,122.289 43.378 C 122.409 43.368,126.452 45.614,131.273 48.369 M119.904 45.777 C 118.583 46.586,94.212 60.634,81.055 68.170 C 73.014 72.776,72.544 73.065,72.754 73.275 C 73.057 73.578,102.847 76.172,106.029 76.172 C 106.795 76.172,107.422 76.005,107.422 75.802 C 107.422 75.463,115.613 57.580,119.758 48.871 C 121.741 44.705,121.743 44.650,119.904 45.777 M123.557 45.419 C 123.801 46.012,134.102 68.483,136.231 73.066 L 137.782 76.405 141.645 76.085 C 167.544 73.937,172.065 73.448,171.417 72.861 C 170.786 72.290,163.402 67.940,147.852 58.977 C 127.214 47.082,123.356 44.929,123.557 45.419 M221.484 46.828 C 220.088 47.639,214.814 50.680,209.766 53.586 C 194.964 62.103,180.410 70.533,176.824 72.665 L 175.718 73.322 177.996 73.590 C 184.809 74.392,208.292 76.261,209.558 76.102 C 210.445 75.991,210.957 75.118,214.099 68.359 C 219.953 55.770,224.609 45.627,224.609 45.465 C 224.609 45.117,223.890 45.431,221.484 46.828 M227.065 45.801 C 227.559 47.038,235.020 63.383,237.807 69.336 L 240.917 75.977 244.580 75.867 C 246.594 75.806,253.987 75.235,261.008 74.597 C 268.030 73.959,274.173 73.438,274.661 73.438 C 275.938 73.438,275.517 73.138,268.750 69.239 C 265.420 67.320,259.707 64.029,256.055 61.926 C 252.402 59.823,249.238 57.969,249.023 57.807 C 248.809 57.644,247.051 56.630,245.117 55.553 C 243.184 54.476,238.360 51.731,234.399 49.454 C 226.697 45.026,226.769 45.062,227.065 45.801 M118.583 53.615 C 116.880 57.320,113.915 63.691,111.994 67.773 C 110.074 71.855,108.361 75.566,108.188 76.019 C 107.927 76.703,117.895 95.317,121.448 100.781 C 121.698 101.165,121.837 91.975,121.852 74.121 C 121.865 59.136,121.831 46.876,121.777 46.877 C 121.724 46.877,120.286 49.910,118.583 53.615 M123.081 74.199 L 123.047 101.327 128.834 91.182 C 137.652 75.722,136.947 77.218,136.233 75.491 C 135.410 73.502,127.099 55.395,124.891 50.781 L 123.116 47.070 123.081 74.199 M223.287 50.879 C 222.359 52.866,219.274 59.468,216.431 65.550 C 213.588 71.632,211.346 76.817,211.448 77.073 C 211.659 77.604,224.939 100.850,225.152 101.063 C 225.228 101.140,225.320 89.067,225.356 74.234 C 225.392 59.401,225.321 47.266,225.198 47.266 C 225.075 47.266,224.215 48.892,223.287 50.879 M226.179 74.238 L 226.186 101.367 227.875 98.438 C 228.804 96.826,231.965 91.278,234.899 86.107 L 240.233 76.707 236.667 69.115 C 234.706 64.940,231.711 58.449,230.012 54.692 C 228.313 50.935,226.754 47.692,226.548 47.485 C 226.307 47.245,226.174 56.871,226.179 74.238 M270.703 74.686 C 267.738 75.027,256.427 76.020,247.526 76.721 C 242.180 77.142,241.219 77.318,240.744 77.961 C 240.151 78.766,235.075 87.627,230.469 95.898 C 228.913 98.691,227.547 101.136,227.432 101.330 C 227.317 101.524,227.382 101.591,227.576 101.478 C 233.374 98.110,244.431 91.735,248.438 89.450 C 258.529 83.696,272.079 75.900,273.412 75.081 C 274.860 74.191,274.924 74.201,270.703 74.686 M74.414 74.932 C 74.629 75.161,83.154 80.122,93.359 85.957 C 111.997 96.613,118.509 100.377,120.304 101.528 L 121.271 102.148 120.443 100.781 C 118.861 98.171,112.208 86.498,109.755 82.031 C 108.399 79.561,107.259 77.494,107.223 77.439 C 107.187 77.384,104.009 77.083,100.161 76.770 C 93.417 76.220,82.441 75.280,76.758 74.764 C 74.830 74.590,74.139 74.639,74.414 74.932 M164.844 75.016 C 163.232 75.180,156.472 75.779,149.820 76.346 C 143.168 76.914,137.702 77.415,137.673 77.459 C 137.643 77.503,134.893 82.373,131.560 88.281 C 128.227 94.189,125.086 99.727,124.580 100.586 C 124.073 101.448,123.918 101.952,124.233 101.710 C 124.741 101.321,150.341 86.517,162.695 79.468 C 165.273 77.997,168.164 76.302,169.119 75.701 L 170.856 74.609 169.315 74.664 C 168.467 74.694,166.455 74.853,164.844 75.016 M177.344 74.692 C 178.127 75.459,223.852 101.669,224.054 101.466 C 224.172 101.348,210.918 77.975,210.491 77.548 C 210.379 77.437,204.062 76.814,196.453 76.165 C 188.843 75.516,181.387 74.876,179.883 74.743 C 178.379 74.610,177.236 74.587,177.344 74.692 M71.500 103.535 C 71.514 129.075,71.574 131.729,72.109 130.741 C 72.435 130.139,74.677 126.800,77.090 123.320 C 79.503 119.839,83.542 113.960,86.065 110.254 C 91.285 102.589,91.118 103.752,87.700 98.828 C 85.541 95.717,82.229 90.856,75.990 81.641 C 73.882 78.525,72.005 75.810,71.820 75.605 C 71.633 75.398,71.491 87.720,71.500 103.535 M73.047 75.514 C 73.047 75.624,74.831 78.322,77.011 81.510 C 79.192 84.697,83.060 90.381,85.607 94.141 C 88.155 97.900,90.548 101.374,90.926 101.860 L 91.612 102.744 105.957 102.642 L 120.301 102.539 97.944 89.740 C 85.647 82.701,75.015 76.576,74.316 76.128 C 73.618 75.680,73.047 75.404,73.047 75.514 M165.572 86.084 C 161.569 91.911,157.320 98.194,156.131 100.045 L 153.969 103.411 159.504 111.574 C 170.920 128.412,172.857 131.224,173.047 131.237 C 173.236 131.250,173.145 80.931,172.949 77.295 L 172.852 75.488 165.572 86.084 M174.904 97.949 C 174.959 110.356,175.047 122.881,175.100 125.781 L 175.195 131.055 177.768 127.344 C 184.382 117.803,193.809 103.503,193.689 103.192 C 193.435 102.537,175.195 75.415,175.000 75.402 C 174.893 75.396,174.850 85.542,174.904 97.949 M274.803 77.441 C 274.025 78.569,272.295 81.074,270.960 83.008 C 269.625 84.941,265.959 90.323,262.814 94.968 L 257.095 103.412 261.014 109.226 C 266.398 117.212,276.199 131.250,276.390 131.250 C 276.477 131.250,276.535 118.682,276.520 103.320 C 276.504 87.959,276.430 75.391,276.355 75.391 C 276.280 75.391,275.582 76.313,274.803 77.441 M152.734 86.351 C 142.744 92.131,132.329 98.111,129.590 99.641 C 126.851 101.171,124.609 102.493,124.609 102.578 C 124.609 102.664,131.069 102.728,138.965 102.719 L 153.320 102.704 159.085 94.028 C 162.255 89.256,166.337 83.198,168.155 80.566 C 169.974 77.935,171.335 75.795,171.180 75.812 C 171.025 75.829,162.725 80.572,152.734 86.351 M185.576 89.231 L 194.727 102.818 208.968 102.760 C 216.800 102.728,223.258 102.653,223.318 102.594 C 223.378 102.534,215.475 97.937,205.756 92.379 C 196.038 86.821,185.761 80.896,182.920 79.214 C 180.079 77.532,177.456 76.041,177.090 75.900 C 176.725 75.760,180.544 81.759,185.576 89.231 M265.430 80.809 C 260.703 83.546,250.859 89.222,243.555 93.423 C 236.250 97.623,229.658 101.436,228.906 101.896 L 227.539 102.731 241.996 102.733 L 256.452 102.734 265.238 89.764 C 275.367 74.812,274.739 75.774,274.336 75.808 C 274.164 75.822,270.156 78.073,265.430 80.809 M105.986 103.808 L 91.465 103.916 87.236 110.180 C 84.911 113.625,80.767 119.690,78.027 123.658 C 75.288 127.626,73.047 130.953,73.047 131.051 C 73.047 131.148,75.112 130.026,77.637 128.557 C 83.454 125.171,99.302 116.068,106.445 112.010 C 116.086 106.532,120.703 103.832,120.703 103.672 C 120.703 103.586,120.659 103.557,120.605 103.608 C 120.552 103.659,113.973 103.749,105.986 103.808 M124.819 104.222 C 125.026 104.402,128.447 106.368,132.422 108.592 C 136.396 110.816,143.867 115.084,149.023 118.076 C 154.180 121.068,161.299 125.190,164.844 127.237 C 168.389 129.283,171.454 131.054,171.655 131.172 C 171.857 131.290,171.417 130.562,170.679 129.554 C 169.940 128.547,165.728 122.407,161.317 115.912 L 153.299 104.102 138.871 103.999 C 130.936 103.943,124.613 104.043,124.819 104.222 M192.664 106.934 C 191.594 108.599,187.530 114.663,183.633 120.410 C 179.736 126.157,176.652 130.859,176.779 130.859 C 176.906 130.859,180.293 128.952,184.306 126.621 C 188.318 124.290,198.457 118.459,206.836 113.663 C 215.215 108.867,222.417 104.709,222.841 104.424 C 223.488 103.989,221.285 103.906,209.110 103.906 L 194.609 103.906 192.664 106.934 M228.320 104.371 C 233.563 107.330,263.505 124.612,273.433 130.410 L 275.187 131.434 272.187 127.143 C 270.537 124.783,266.320 118.597,262.816 113.396 L 256.445 103.941 241.992 103.935 C 231.060 103.931,227.729 104.037,228.320 104.371 M115.234 108.096 C 112.119 109.925,107.637 112.515,105.273 113.851 C 95.178 119.557,74.775 131.350,74.434 131.676 C 73.904 132.183,75.052 132.136,85.291 131.237 C 90.266 130.801,97.215 130.192,100.734 129.885 C 104.252 129.578,107.165 129.276,107.207 129.214 C 107.248 129.152,110.071 124.180,113.481 118.164 C 116.890 112.148,120.015 106.655,120.425 105.957 C 120.835 105.259,121.110 104.706,121.035 104.728 C 120.960 104.750,118.350 106.266,115.234 108.096 M124.905 106.699 C 125.554 107.848,127.970 112.129,130.274 116.211 C 138.313 130.455,137.494 129.245,139.258 129.488 C 140.564 129.668,155.739 130.945,167.773 131.887 C 169.492 132.021,170.811 132.041,170.703 131.929 C 170.490 131.709,166.688 129.468,158.789 124.907 C 155.996 123.294,149.932 119.786,145.313 117.112 C 140.693 114.437,134.629 110.959,131.836 109.382 C 129.043 107.805,126.076 106.085,125.242 105.561 L 123.726 104.609 124.905 106.699 M223.613 105.047 C 223.409 105.245,219.199 107.733,214.258 110.577 C 202.017 117.620,181.816 129.222,179.789 130.373 C 177.136 131.878,177.272 132.164,180.512 131.885 C 182.099 131.749,187.617 131.284,192.773 130.851 C 207.293 129.633,210.326 129.282,210.641 128.782 C 210.801 128.528,212.536 125.508,214.497 122.070 C 216.458 118.633,218.414 115.205,218.845 114.453 C 223.836 105.733,224.734 103.961,223.613 105.047 M228.435 107.129 C 229.067 108.257,231.071 111.816,232.888 115.039 C 234.706 118.262,237.234 122.776,238.506 125.070 C 240.657 128.947,240.917 129.258,242.188 129.460 C 243.496 129.668,263.162 131.329,270.508 131.852 C 274.782 132.156,275.110 132.466,264.992 126.638 C 260.936 124.301,255.244 121.013,252.344 119.331 C 240.185 112.278,227.612 105.078,227.455 105.078 C 227.362 105.078,227.803 106.001,228.435 107.129 M114.879 117.628 C 111.138 124.221,108.087 129.764,108.098 129.945 C 108.109 130.126,111.169 136.899,114.899 144.998 L 121.680 159.722 121.782 146.043 C 121.839 138.520,121.839 126.351,121.782 119.002 L 121.680 105.639 114.879 117.628 M226.196 132.628 L 226.220 159.961 226.983 158.398 C 227.403 157.539,230.549 150.787,233.975 143.394 L 240.204 129.952 236.956 124.253 C 235.169 121.119,232.247 115.918,230.462 112.695 C 228.677 109.473,226.982 106.489,226.694 106.065 C 226.256 105.419,226.176 109.691,226.196 132.628 M123.080 132.628 L 123.113 159.570 123.918 157.813 C 128.775 147.212,134.626 134.637,135.585 132.736 C 136.244 131.432,136.700 130.050,136.600 129.665 C 136.433 129.028,124.766 108.260,123.561 106.456 C 123.133 105.815,123.052 110.218,123.080 132.628 M221.403 111.836 C 219.562 115.102,216.529 120.476,214.662 123.779 L 211.267 129.784 212.443 132.373 C 213.511 134.722,217.945 144.302,220.692 150.195 C 221.292 151.484,222.496 154.077,223.367 155.957 C 224.237 157.837,225.005 159.375,225.072 159.374 C 225.380 159.373,225.400 106.302,225.093 106.112 C 224.903 105.995,223.243 108.571,221.403 111.836 M101.758 130.744 C 91.657 131.675,73.992 133.203,73.339 133.203 C 72.105 133.203,72.556 133.514,79.883 137.711 C 83.535 139.804,94.299 145.973,103.803 151.422 C 113.307 156.870,121.166 161.328,121.268 161.328 C 121.369 161.328,120.350 158.999,119.002 156.152 C 117.654 153.306,114.454 146.367,111.889 140.733 L 107.227 130.489 105.273 130.544 C 104.199 130.575,102.617 130.665,101.758 130.744 M136.450 133.105 C 135.777 134.556,133.347 139.785,131.049 144.727 C 126.020 155.544,123.433 161.328,123.623 161.328 C 123.700 161.328,125.140 160.512,126.823 159.514 C 130.179 157.525,147.464 147.576,162.576 138.935 C 167.881 135.902,172.179 133.377,172.128 133.326 C 172.076 133.274,167.560 132.869,162.091 132.427 C 156.623 131.984,149.424 131.363,146.094 131.047 C 137.070 130.189,137.883 130.016,136.450 133.105 M205.078 130.722 C 204.326 130.801,199.580 131.219,194.531 131.651 C 179.543 132.931,176.113 133.302,176.444 133.607 C 176.617 133.766,183.350 137.669,191.406 142.281 C 206.207 150.754,216.681 156.780,221.669 159.693 C 223.168 160.568,224.439 161.238,224.494 161.183 C 224.549 161.128,221.440 154.238,217.583 145.873 L 210.572 130.664 208.509 130.621 C 207.374 130.597,205.830 130.642,205.078 130.722 M240.683 131.152 C 240.344 131.795,237.752 137.419,230.378 153.516 C 228.655 157.275,227.070 160.571,226.856 160.840 C 226.112 161.772,227.042 161.305,234.302 157.097 C 249.779 148.124,272.911 134.836,274.157 134.201 C 276.166 133.178,276.550 133.255,265.234 132.410 C 262.119 132.177,255.890 131.645,251.392 131.228 C 241.373 130.298,241.134 130.296,240.683 131.152 M62.109 139.417 C 58.135 141.723,49.434 146.744,42.773 150.573 C 36.113 154.403,29.258 158.361,27.539 159.369 C 25.820 160.376,23.535 161.707,22.461 162.325 L 20.508 163.450 22.266 163.710 C 23.232 163.853,26.045 164.087,28.516 164.230 C 30.986 164.374,33.447 164.567,33.984 164.660 C 35.428 164.910,55.168 166.450,55.275 166.321 C 55.363 166.215,62.734 150.347,67.365 140.295 C 68.587 137.642,69.530 135.416,69.461 135.348 C 69.392 135.279,66.084 137.110,62.109 139.417 M71.614 135.449 C 71.867 135.872,83.725 161.490,84.903 164.160 C 85.448 165.396,86.133 166.406,86.425 166.406 C 86.716 166.406,94.153 165.792,102.950 165.042 C 111.748 164.291,119.263 163.676,119.652 163.675 C 121.169 163.669,121.110 163.632,101.172 152.125 C 98.486 150.575,90.773 146.123,84.031 142.232 C 71.846 135.199,71.278 134.888,71.614 135.449 M169.727 137.027 C 168.008 138.014,160.889 142.099,153.906 146.105 C 146.924 150.112,139.014 154.671,136.328 156.236 C 133.643 157.802,129.951 159.950,128.125 161.009 C 126.299 162.068,124.666 163.072,124.497 163.240 C 124.172 163.563,128.080 163.963,143.945 165.231 C 149.316 165.660,154.854 166.114,156.250 166.238 L 158.789 166.464 159.937 163.799 C 160.569 162.332,162.126 158.936,163.398 156.250 C 168.278 145.949,173.203 135.080,172.940 135.195 C 172.891 135.216,171.445 136.040,169.727 137.027 M278.125 135.306 C 278.125 135.471,279.528 138.541,285.731 151.953 C 287.072 154.854,289.116 159.313,290.272 161.863 L 292.374 166.499 295.699 166.243 C 297.527 166.103,302.803 165.651,307.422 165.239 C 312.041 164.826,318.248 164.279,321.216 164.022 C 327.754 163.455,328.237 164.105,316.016 157.018 C 310.752 153.965,303.721 149.878,300.391 147.934 C 283.901 138.312,278.125 135.036,278.125 135.306 M177.012 139.746 C 181.744 149.814,187.423 162.091,188.303 164.153 C 188.895 165.542,189.496 166.395,189.885 166.400 C 190.229 166.403,194.536 166.060,199.455 165.637 C 204.374 165.214,211.650 164.594,215.625 164.258 C 219.600 163.923,223.109 163.609,223.424 163.560 C 224.133 163.450,222.355 162.326,211.719 156.158 C 207.100 153.479,200.985 149.932,198.130 148.275 C 189.228 143.107,175.705 135.547,175.364 135.547 C 175.185 135.547,175.926 137.437,177.012 139.746 M268.359 139.687 C 259.926 144.517,234.239 159.351,230.303 161.664 C 228.703 162.605,227.826 163.328,228.155 163.436 C 228.858 163.666,234.597 164.207,249.374 165.435 C 262.892 166.559,262.109 166.525,262.109 165.997 C 262.109 165.772,264.676 160.103,267.812 153.399 C 270.949 146.696,274.108 139.937,274.834 138.379 C 275.559 136.821,276.025 135.547,275.869 135.547 C 275.713 135.548,272.334 137.410,268.359 139.687 M71.117 164.225 C 71.104 179.246,71.195 191.435,71.320 191.311 C 72.175 190.455,84.916 167.404,84.869 166.797 C 84.828 166.272,75.173 145.133,72.290 139.258 L 71.141 136.914 71.117 164.225 M277.734 164.076 C 277.734 178.979,277.881 191.005,278.059 190.801 C 278.354 190.464,281.264 185.340,288.739 171.996 C 291.974 166.220,292.233 168.336,286.879 156.813 C 284.388 151.455,281.377 144.873,280.188 142.188 C 278.998 139.502,277.959 137.231,277.879 137.142 C 277.800 137.052,277.734 149.173,277.734 164.076 M65.438 146.804 C 63.086 151.892,60.056 158.387,58.706 161.237 C 57.355 164.087,56.250 166.653,56.250 166.938 C 56.250 167.397,69.214 190.406,69.860 191.094 C 70.002 191.244,70.103 179.335,70.086 164.630 C 70.069 149.925,69.979 137.817,69.885 137.724 C 69.792 137.630,67.790 141.716,65.438 146.804 M171.805 140.439 C 171.014 142.153,167.982 148.689,165.066 154.964 C 158.874 168.293,159.229 166.431,161.955 171.292 C 168.374 182.739,173.128 191.020,173.365 191.167 C 173.602 191.313,173.574 140.735,173.336 138.291 C 173.264 137.553,172.903 138.060,171.805 140.439 M174.609 164.475 C 174.609 187.173,174.694 191.455,175.130 190.810 C 175.620 190.084,180.378 181.639,186.049 171.428 L 188.576 166.879 181.808 152.339 C 178.085 144.343,174.943 137.703,174.825 137.585 C 174.706 137.467,174.609 149.567,174.609 164.475 M273.569 143.388 C 272.031 146.702,268.920 153.369,266.657 158.203 C 263.058 165.892,262.604 167.090,263.030 167.773 C 263.298 168.203,266.408 173.708,269.942 180.006 L 276.367 191.457 276.470 177.955 C 276.526 170.529,276.526 158.357,276.470 150.907 L 276.367 137.361 273.569 143.388 M21.875 164.856 C 21.875 164.983,23.765 166.156,26.074 167.462 C 28.384 168.768,35.547 172.867,41.992 176.572 C 67.322 191.130,68.750 191.932,68.750 191.601 C 68.750 191.408,60.700 177.026,56.605 169.902 L 55.134 167.343 43.876 166.442 C 37.684 165.947,30.200 165.335,27.246 165.083 C 24.292 164.831,21.875 164.728,21.875 164.856 M115.820 164.877 C 114.102 165.053,107.070 165.652,100.195 166.208 C 93.320 166.764,87.256 167.308,86.719 167.416 C 85.918 167.577,85.038 168.896,81.841 174.724 C 79.696 178.636,76.683 184.033,75.145 186.719 C 73.607 189.404,72.410 191.666,72.484 191.746 C 72.558 191.825,75.572 190.167,79.181 188.062 C 92.772 180.132,95.025 178.830,106.836 172.081 C 118.323 165.517,120.192 164.382,119.316 164.505 C 119.112 164.534,117.539 164.701,115.820 164.877 M212.305 165.473 C 206.719 165.976,199.280 166.611,195.775 166.885 L 189.401 167.383 182.652 179.492 C 178.940 186.152,175.944 191.655,175.994 191.721 C 176.044 191.786,179.049 190.135,182.671 188.052 C 186.294 185.968,192.773 182.242,197.070 179.770 C 218.432 167.484,224.155 164.068,222.642 164.506 C 222.543 164.534,217.891 164.970,212.305 165.473 M309.049 166.000 C 296.404 167.105,292.426 167.575,292.149 168.000 C 291.950 168.305,289.917 171.895,287.630 175.977 C 285.343 180.059,282.431 185.215,281.158 187.436 C 279.885 189.657,278.904 191.534,278.977 191.607 C 279.114 191.744,283.598 189.244,292.969 183.808 C 300.107 179.667,306.317 176.082,316.992 169.940 C 326.141 164.677,326.572 164.415,325.944 164.504 C 325.747 164.532,318.144 165.205,309.049 166.000 M126.758 165.717 C 127.617 166.232,131.836 168.682,136.133 171.160 C 140.430 173.638,146.143 176.943,148.828 178.504 C 162.921 186.695,171.986 191.816,172.132 191.670 C 172.222 191.580,169.860 187.221,166.883 181.984 C 163.906 176.746,160.837 171.315,160.064 169.915 L 158.657 167.370 145.247 166.289 C 137.871 165.695,130.342 165.112,128.516 164.994 L 125.195 164.779 126.758 165.717 M228.906 164.945 C 229.074 165.119,254.185 179.722,268.555 188.001 C 271.133 189.487,273.813 191.050,274.511 191.476 L 275.780 192.251 274.096 189.387 C 273.169 187.812,270.000 182.193,267.052 176.901 C 264.105 171.609,261.479 167.297,261.218 167.320 C 260.718 167.363,258.716 167.202,244.727 165.999 C 233.061 164.996,228.674 164.704,228.906 164.945 M19.531 193.828 C 19.531 210.137,19.677 221.875,19.876 221.660 C 20.371 221.127,37.288 196.377,38.120 194.969 C 39.003 193.474,39.252 193.948,32.255 183.789 C 29.148 179.277,25.068 173.345,23.190 170.605 C 21.312 167.866,19.720 165.625,19.653 165.625 C 19.586 165.625,19.531 178.316,19.531 193.828 M119.882 167.676 C 119.124 168.804,114.858 175.134,110.402 181.742 L 102.300 193.758 110.272 205.570 C 121.095 221.605,121.259 221.843,121.508 221.860 C 121.629 221.868,121.771 209.219,121.825 193.750 C 121.879 178.281,121.774 165.625,121.592 165.625 C 121.410 165.625,120.640 166.548,119.882 167.676 M123.056 193.770 C 123.064 221.941,123.068 222.066,123.829 221.094 C 124.250 220.557,128.579 214.201,133.449 206.970 L 142.304 193.823 136.315 184.900 C 126.523 170.311,123.757 166.231,123.392 165.840 C 123.192 165.625,123.051 177.353,123.056 193.770 M124.796 166.016 C 125.261 166.789,140.878 190.021,142.165 191.852 L 143.164 193.275 157.715 193.219 C 165.718 193.189,172.266 193.136,172.266 193.102 C 172.266 193.067,170.903 192.298,169.238 191.391 C 167.573 190.484,162.783 187.762,158.594 185.342 C 134.471 171.408,126.569 166.819,125.566 166.163 C 124.742 165.624,124.538 165.585,124.796 166.016 M221.440 170.313 C 219.590 172.998,215.301 179.367,211.909 184.466 L 205.742 193.737 215.274 208.003 L 224.805 222.268 224.907 208.233 C 224.964 200.514,224.964 187.725,224.907 179.814 L 224.805 165.430 221.440 170.313 M226.585 193.776 C 226.603 215.797,226.712 221.918,227.074 221.383 C 227.330 221.005,231.630 214.610,236.630 207.173 L 245.720 193.651 244.677 192.283 C 244.103 191.531,239.793 185.193,235.098 178.199 L 226.563 165.481 226.585 193.776 M323.912 171.191 C 321.774 174.253,317.458 180.578,314.321 185.247 L 308.616 193.737 310.685 196.771 C 311.823 198.439,315.363 203.672,318.553 208.398 C 323.664 215.974,326.946 220.700,327.693 221.563 C 327.823 221.713,327.930 209.189,327.930 193.731 C 327.930 178.273,327.900 165.625,327.865 165.625 C 327.829 165.625,326.050 168.130,323.912 171.191 M21.531 166.315 C 21.613 166.540,23.583 169.508,25.909 172.912 C 28.236 176.316,32.285 182.266,34.907 186.133 L 39.675 193.164 54.017 193.167 C 61.905 193.168,68.359 193.065,68.359 192.936 C 68.359 192.807,67.499 192.234,66.447 191.661 C 64.300 190.493,23.742 167.323,21.727 166.113 C 21.538 166.000,21.450 166.091,21.531 166.315 M106.641 173.370 C 99.658 177.387,90.166 182.859,85.547 185.530 C 80.928 188.201,76.229 190.891,75.105 191.507 C 73.981 192.124,72.976 192.767,72.871 192.937 C 72.767 193.106,79.150 193.275,87.056 193.313 L 101.431 193.382 106.356 186.046 C 109.065 182.012,113.221 175.854,115.590 172.363 C 117.960 168.872,119.772 166.027,119.617 166.041 C 119.462 166.056,113.623 169.354,106.641 173.370 M218.748 168.407 C 213.928 171.219,200.236 179.119,186.555 186.983 C 181.201 190.060,176.675 192.578,176.496 192.578 C 176.318 192.578,176.172 192.733,176.172 192.923 C 176.172 193.661,204.525 193.408,205.179 192.663 C 205.660 192.115,210.043 185.609,222.402 167.097 C 223.338 165.694,223.496 165.637,218.748 168.407 M237.206 179.590 L 246.331 193.164 259.200 193.164 C 277.450 193.164,276.566 193.756,266.719 188.129 C 262.143 185.515,256.904 182.481,255.078 181.388 C 253.252 180.294,247.187 176.765,241.602 173.545 C 236.016 170.325,230.830 167.314,230.078 166.854 C 229.326 166.395,228.569 166.018,228.396 166.017 C 228.223 166.016,232.187 172.124,237.206 179.590 M316.551 171.384 C 311.406 174.340,300.923 180.361,293.257 184.766 C 285.591 189.170,279.314 192.861,279.308 192.969 C 279.302 193.076,285.686 193.211,293.495 193.267 L 307.692 193.371 314.295 183.566 C 320.524 174.317,322.049 172.107,325.012 168.036 C 326.855 165.503,326.646 165.586,316.551 171.384 M39.536 194.629 C 39.314 194.897,38.087 196.709,36.810 198.655 C 35.533 200.601,31.547 206.460,27.952 211.674 C 24.357 216.889,21.480 221.219,21.557 221.297 C 21.635 221.374,26.465 218.680,32.291 215.309 C 38.117 211.938,46.860 206.895,51.719 204.102 C 56.578 201.309,62.442 197.929,64.749 196.591 L 68.945 194.158 54.442 194.149 C 43.307 194.143,39.846 194.254,39.536 194.629 M72.656 194.303 C 72.656 194.392,73.403 194.890,74.316 195.411 C 75.229 195.931,81.338 199.437,87.891 203.200 C 98.587 209.345,104.199 212.589,115.952 219.426 C 117.957 220.593,119.641 221.489,119.692 221.418 C 119.744 221.347,115.648 215.181,110.591 207.715 L 101.395 194.141 87.026 194.141 C 79.123 194.141,72.656 194.213,72.656 194.303 M133.879 208.047 C 124.994 221.319,124.666 221.875,126.262 220.955 C 127.852 220.037,147.569 208.597,168.359 196.529 L 172.461 194.148 157.813 194.163 L 143.164 194.178 133.879 208.047 M176.387 194.509 C 176.591 194.712,181.328 197.500,186.914 200.705 C 201.865 209.284,206.782 212.131,215.234 217.103 C 219.424 219.567,222.978 221.656,223.133 221.745 C 223.288 221.834,219.245 215.664,214.149 208.033 L 204.883 194.159 190.449 194.150 C 181.399 194.144,176.154 194.278,176.387 194.509 M239.015 205.371 C 234.892 211.548,230.739 217.700,229.787 219.043 C 228.835 220.386,228.170 221.484,228.309 221.484 C 228.612 221.484,274.254 194.964,274.785 194.479 C 274.995 194.288,268.947 194.141,260.834 194.141 L 246.512 194.141 239.015 205.371 M278.906 194.307 C 278.906 194.398,279.829 194.984,280.957 195.610 C 282.085 196.236,288.193 199.738,294.531 203.394 C 317.650 216.727,322.113 219.299,324.340 220.567 L 326.611 221.860 323.727 217.668 C 322.141 215.363,317.895 209.126,314.290 203.809 L 307.735 194.141 293.321 194.141 C 285.393 194.141,278.906 194.215,278.906 194.307 M66.016 197.025 C 64.404 197.954,61.416 199.680,59.375 200.860 C 57.334 202.040,50.918 205.728,45.117 209.056 C 31.119 217.085,22.935 221.876,22.480 222.305 C 21.907 222.848,23.665 222.736,47.461 220.721 C 50.039 220.502,52.815 220.285,53.631 220.237 L 55.113 220.150 58.375 214.274 C 60.169 211.043,63.314 205.454,65.363 201.855 C 67.412 198.257,69.057 195.318,69.017 195.325 C 68.978 195.331,67.627 196.097,66.016 197.025 M72.716 196.233 C 72.955 196.694,76.024 202.259,79.537 208.602 L 85.925 220.133 102.044 221.423 C 110.910 222.132,118.516 222.808,118.945 222.924 C 120.848 223.438,116.293 220.704,90.820 206.047 C 71.593 194.984,72.255 195.343,72.716 196.233 M279.443 196.986 C 279.962 197.892,282.721 202.852,285.573 208.008 C 288.426 213.164,291.154 218.015,291.637 218.788 L 292.513 220.194 296.159 220.424 C 300.806 220.718,322.828 222.577,324.520 222.818 C 326.496 223.100,325.823 222.577,319.624 219.015 C 316.458 217.196,311.670 214.436,308.984 212.882 C 301.812 208.731,286.292 199.792,282.120 197.409 L 278.499 195.340 279.443 196.986 M66.286 202.246 C 58.476 215.978,56.608 219.361,56.411 220.130 C 56.280 220.642,58.174 225.158,61.734 232.825 C 64.774 239.371,67.798 245.913,68.454 247.363 C 69.111 248.813,69.788 250.000,69.961 250.000 C 70.133 250.000,70.254 237.783,70.229 222.852 C 70.205 207.920,70.145 195.703,70.096 195.703 C 70.047 195.703,68.333 198.647,66.286 202.246 M71.094 222.983 C 71.094 241.186,71.225 250.355,71.484 250.195 C 71.699 250.063,71.875 249.808,71.875 249.629 C 71.875 249.268,79.033 233.496,82.767 225.629 L 85.157 220.594 81.493 214.106 C 79.479 210.537,76.547 205.244,74.978 202.344 C 73.410 199.443,71.894 196.724,71.610 196.300 C 71.180 195.657,71.094 200.089,71.094 222.983 M169.141 197.246 C 166.445 198.850,137.628 215.568,130.103 219.893 L 125.636 222.461 127.369 222.553 C 128.322 222.604,135.752 222.077,143.881 221.382 L 158.660 220.117 164.012 210.547 C 166.955 205.283,170.025 199.790,170.834 198.340 C 172.542 195.276,172.498 195.248,169.141 197.246 M174.610 223.014 C 174.610 238.143,174.673 250.448,174.750 250.358 C 174.828 250.269,176.254 247.207,177.919 243.555 C 179.584 239.902,182.597 233.351,184.614 228.997 C 189.006 219.515,189.022 221.693,184.499 213.601 C 182.419 209.880,179.343 204.287,177.664 201.172 L 174.610 195.508 174.610 223.014 M177.413 198.730 C 178.322 200.396,181.363 205.889,184.172 210.938 L 189.280 220.117 194.347 220.549 C 197.134 220.787,200.645 221.090,202.148 221.223 C 203.652 221.355,208.398 221.733,212.695 222.063 C 216.992 222.392,221.030 222.752,221.667 222.862 C 223.401 223.160,222.815 222.750,214.648 217.950 C 200.846 209.837,176.276 195.703,175.973 195.703 C 175.856 195.703,176.504 197.065,177.413 198.730 M261.326 203.545 C 253.915 207.858,244.336 213.454,240.039 215.980 C 235.742 218.506,231.479 220.986,230.566 221.491 C 227.991 222.916,228.267 222.933,238.965 222.018 C 244.497 221.545,251.798 220.930,255.189 220.652 C 258.580 220.375,261.485 220.053,261.645 219.937 C 261.920 219.739,265.010 214.304,271.203 203.125 C 272.691 200.439,274.256 197.671,274.681 196.973 C 275.821 195.101,275.911 195.057,261.326 203.545 M276.172 196.037 C 276.172 196.220,273.155 201.713,269.467 208.244 C 265.780 214.774,262.777 220.384,262.796 220.710 C 262.822 221.193,267.293 230.958,275.490 248.438 L 276.497 250.586 276.530 223.145 C 276.548 208.052,276.475 195.703,276.367 195.703 C 276.260 195.703,276.172 195.853,276.172 196.037 M166.504 208.095 C 158.947 221.665,159.311 220.590,161.071 224.131 C 161.790 225.576,164.822 232.119,167.810 238.672 L 173.242 250.586 173.345 236.788 C 173.401 229.199,173.401 216.916,173.345 209.492 L 173.242 195.995 166.504 208.095 M277.702 222.086 C 277.685 236.472,277.586 248.770,277.483 249.414 C 277.155 251.464,277.943 250.077,281.367 242.578 C 283.182 238.604,286.208 232.032,288.090 227.976 C 291.398 220.850,291.493 220.565,290.910 219.577 C 290.577 219.015,287.477 213.464,284.020 207.242 L 277.734 195.930 277.702 222.086 M36.526 222.542 C 22.079 223.786,19.798 224.069,20.922 224.475 C 21.311 224.616,28.452 228.659,33.203 231.428 C 34.385 232.117,39.482 235.056,44.531 237.960 C 49.580 240.863,57.268 245.288,61.615 247.791 C 65.962 250.295,69.573 252.344,69.639 252.344 C 69.705 252.344,69.099 250.981,68.294 249.316 C 66.903 246.442,64.799 241.893,58.179 227.448 L 55.273 221.106 53.711 221.152 C 52.852 221.177,45.118 221.802,36.526 222.542 M84.793 223.535 C 84.181 224.878,82.940 227.559,82.034 229.492 C 78.353 237.351,71.875 251.697,71.875 251.991 C 71.875 252.164,73.149 251.552,74.707 250.632 C 78.975 248.110,88.791 242.453,105.273 233.017 C 121.050 223.985,120.528 224.296,120.280 224.070 C 120.190 223.988,115.635 223.547,110.156 223.089 C 104.678 222.630,97.207 221.998,93.555 221.683 C 89.902 221.368,86.687 221.106,86.409 221.102 C 86.132 221.097,85.404 222.192,84.793 223.535 M152.930 221.509 C 144.536 222.286,126.078 223.828,125.168 223.828 C 123.667 223.828,124.227 224.310,128.609 226.792 C 132.948 229.249,153.079 240.838,165.039 247.764 C 169.121 250.127,172.593 252.136,172.755 252.226 C 172.916 252.317,172.456 251.106,171.731 249.535 C 171.007 247.965,168.831 243.252,166.897 239.063 C 164.962 234.873,162.334 229.160,161.056 226.367 C 158.396 220.551,159.051 220.943,152.930 221.509 M187.537 224.912 C 186.591 227.001,183.459 233.870,180.577 240.175 C 177.695 246.480,175.429 251.731,175.540 251.842 C 175.740 252.042,197.983 239.356,218.405 227.395 C 224.764 223.671,224.832 224.061,217.728 223.493 C 214.315 223.220,206.689 222.571,200.781 222.050 C 194.873 221.529,189.863 221.105,189.648 221.107 C 189.434 221.110,188.484 222.822,187.537 224.912 M249.414 222.061 C 244.258 222.538,237.271 223.155,233.887 223.434 C 230.503 223.712,227.739 224.046,227.745 224.177 C 227.751 224.307,233.948 227.980,241.515 232.339 C 249.082 236.698,259.837 242.894,265.416 246.109 C 270.994 249.323,275.687 251.953,275.845 251.953 C 276.003 251.953,275.070 249.712,273.770 246.973 C 270.361 239.783,263.816 225.738,262.709 223.236 C 261.584 220.692,262.938 220.811,249.414 222.061 M285.215 236.567 C 281.292 245.078,278.148 252.106,278.227 252.186 C 278.378 252.337,307.943 235.355,320.053 228.162 L 327.020 224.023 323.959 223.738 C 314.270 222.836,293.850 221.094,292.966 221.094 C 292.531 221.094,290.222 225.704,285.215 236.567 M112.891 230.804 C 108.486 233.330,101.016 237.607,96.289 240.308 C 91.563 243.010,84.290 247.218,80.128 249.660 L 72.560 254.100 74.268 254.375 C 76.314 254.704,104.379 257.040,106.055 257.021 C 107.179 257.008,107.326 256.789,109.656 251.648 C 110.992 248.701,113.516 243.213,115.265 239.453 C 117.014 235.693,119.117 231.167,119.939 229.395 C 120.761 227.622,121.313 226.181,121.166 226.191 C 121.019 226.202,117.295 228.278,112.891 230.804 M123.438 226.339 C 123.438 226.496,124.597 228.985,133.006 246.875 C 134.874 250.850,136.668 254.761,136.993 255.566 C 137.510 256.846,137.749 257.031,138.880 257.031 C 140.631 257.031,168.080 254.719,170.406 254.375 L 172.257 254.102 159.078 246.500 C 151.829 242.320,141.768 236.549,136.719 233.676 C 131.670 230.803,126.692 227.939,125.658 227.312 C 123.780 226.174,123.438 226.024,123.438 226.339 M214.844 231.625 C 209.795 234.587,199.026 240.839,190.913 245.519 C 182.801 250.199,176.213 254.077,176.274 254.138 C 176.552 254.417,179.332 254.713,188.632 255.455 C 194.133 255.894,200.685 256.428,203.192 256.642 C 205.700 256.856,208.350 257.031,209.081 257.031 L 210.411 257.031 217.307 242.240 C 225.031 225.674,224.817 226.159,224.358 226.206 C 224.174 226.225,219.893 228.664,214.844 231.625 M226.953 226.333 C 226.953 226.830,240.554 256.221,241.044 256.782 C 241.207 256.969,246.957 256.664,253.970 256.097 C 270.226 254.782,275.125 254.261,274.732 253.889 C 274.441 253.614,268.363 250.050,251.758 240.418 C 247.045 237.684,229.497 227.571,227.246 226.292 C 227.085 226.201,226.953 226.219,226.953 226.333 M226.178 254.915 C 226.185 281.623,226.201 282.201,226.905 281.055 C 227.302 280.410,230.465 274.858,233.935 268.716 L 240.244 257.550 235.700 247.818 C 233.200 242.465,230.119 235.813,228.853 233.035 C 227.587 230.257,226.466 227.898,226.362 227.794 C 226.257 227.690,226.175 239.894,226.178 254.915 M121.041 229.297 C 120.689 230.049,119.516 232.598,118.434 234.961 C 117.351 237.324,114.533 243.383,112.170 248.424 C 108.614 256.015,107.945 257.727,108.282 258.385 C 108.505 258.822,111.611 264.327,115.184 270.619 L 121.680 282.058 121.782 268.568 C 121.998 240.271,121.762 227.755,121.041 229.297 M223.972 230.469 C 219.326 240.111,211.328 257.285,211.328 257.621 C 211.328 257.764,214.448 263.337,218.262 270.005 L 225.195 282.130 225.298 268.604 C 225.355 261.165,225.355 248.970,225.298 241.504 L 225.195 227.930 223.972 230.469 M123.056 255.306 L 123.065 282.227 124.349 279.883 C 125.056 278.594,127.976 273.408,130.838 268.359 C 133.700 263.311,136.219 258.793,136.435 258.320 C 136.758 257.610,136.344 256.416,134.063 251.484 C 129.119 240.795,123.444 228.783,123.243 228.582 C 123.135 228.474,123.051 240.500,123.056 255.306 M75.977 256.862 C 77.266 257.655,85.176 262.215,93.555 266.998 C 101.934 271.780,111.406 277.212,114.604 279.069 C 117.803 280.926,120.476 282.389,120.544 282.321 C 120.674 282.190,108.245 260.087,107.352 258.861 C 106.837 258.154,103.905 257.849,76.563 255.657 L 73.633 255.422 75.977 256.862 M158.398 256.442 C 153.027 256.919,147.051 257.424,145.117 257.565 C 143.184 257.705,140.715 257.922,139.631 258.047 L 137.661 258.273 132.209 267.888 C 124.099 282.192,123.622 283.085,124.454 282.384 C 124.862 282.041,126.162 281.241,127.344 280.606 C 130.422 278.954,166.913 257.987,169.083 256.624 L 170.898 255.484 169.531 255.529 C 168.779 255.554,163.770 255.965,158.398 256.442 M177.930 255.974 C 178.763 256.571,188.041 261.959,196.094 266.522 C 198.779 268.044,206.145 272.247,212.461 275.862 C 218.778 279.476,223.990 282.387,224.043 282.330 C 224.139 282.227,210.829 258.746,210.472 258.389 C 210.369 258.286,203.796 257.680,195.865 257.043 C 187.934 256.406,180.479 255.779,179.297 255.650 C 177.362 255.438,177.226 255.470,177.930 255.974 M262.891 256.268 C 258.486 256.656,252.334 257.166,249.219 257.401 C 240.494 258.058,241.366 257.683,238.933 261.831 C 237.772 263.811,235.198 268.330,233.212 271.875 C 231.226 275.420,229.071 279.259,228.424 280.406 L 227.246 282.492 228.554 281.816 C 229.273 281.444,232.327 279.698,235.341 277.937 C 238.355 276.175,244.160 272.842,248.242 270.529 C 259.666 264.057,273.828 255.811,273.828 255.630 C 273.828 255.374,271.465 255.512,262.891 256.268 M71.484 284.334 L 71.484 312.573 75.172 307.166 C 86.269 290.892,90.625 284.407,90.625 284.161 C 90.625 284.010,88.546 280.876,86.005 277.197 C 83.463 273.518,79.308 267.432,76.772 263.672 C 74.235 259.912,72.007 256.669,71.822 256.465 C 71.632 256.256,71.484 268.449,71.484 284.334 M73.047 256.464 C 73.047 256.611,73.636 257.546,74.357 258.541 C 75.078 259.537,77.214 262.637,79.104 265.430 C 80.994 268.223,84.570 273.452,87.050 277.051 L 91.560 283.594 106.001 283.594 C 113.944 283.594,120.369 283.528,120.280 283.447 C 120.190 283.367,110.010 277.543,97.656 270.505 C 85.303 263.467,74.712 257.368,74.121 256.953 C 73.530 256.537,73.047 256.317,73.047 256.464 M170.150 260.296 C 168.664 262.475,164.412 268.754,160.700 274.249 L 153.952 284.240 160.082 293.206 C 163.453 298.137,167.705 304.401,169.531 307.127 C 171.357 309.852,172.939 312.089,173.047 312.096 C 173.242 312.109,173.151 256.606,172.955 256.429 C 172.898 256.377,171.636 258.118,170.150 260.296 M174.799 284.157 C 174.796 299.493,174.891 311.982,175.009 311.909 C 175.583 311.554,193.737 284.653,193.744 284.147 C 193.747 283.914,193.019 282.683,192.125 281.412 C 191.231 280.141,187.253 274.268,183.285 268.359 C 179.316 262.451,175.785 257.315,175.437 256.945 C 174.854 256.324,174.804 258.441,174.799 284.157 M273.444 260.254 C 271.936 262.456,267.652 268.740,263.925 274.219 L 257.149 284.180 263.764 293.945 C 267.403 299.316,271.771 305.717,273.471 308.168 L 276.563 312.625 276.563 284.437 C 276.563 268.934,276.478 256.250,276.375 256.250 C 276.272 256.250,274.953 258.052,273.444 260.254 M167.773 258.562 C 161.664 262.209,128.658 281.124,125.586 282.738 L 124.023 283.559 138.701 283.576 L 153.380 283.594 157.313 277.637 C 159.477 274.360,163.549 268.296,166.362 264.160 C 169.176 260.024,171.348 256.653,171.188 256.669 C 171.029 256.684,169.492 257.536,167.773 258.562 M177.208 257.739 C 177.605 258.343,181.694 264.407,186.296 271.215 L 194.662 283.594 209.128 283.594 C 217.280 283.594,223.432 283.446,223.223 283.256 C 223.019 283.071,213.975 277.865,203.125 271.688 C 192.275 265.512,181.968 259.599,180.219 258.549 C 176.530 256.335,176.232 256.254,177.208 257.739 M271.094 258.486 C 269.482 259.464,262.012 263.778,254.492 268.073 C 246.973 272.368,237.836 277.617,234.189 279.738 L 227.557 283.594 242.018 283.594 L 256.480 283.594 264.861 271.232 C 274.965 256.329,274.767 256.632,274.355 256.675 C 274.173 256.693,272.705 257.509,271.094 258.486 M105.612 284.673 L 91.497 284.775 83.763 296.196 C 79.510 302.478,75.359 308.533,74.539 309.651 C 73.027 311.713,72.646 312.530,73.535 311.808 C 73.804 311.590,74.727 311.022,75.586 310.547 C 76.445 310.071,81.631 307.081,87.109 303.902 C 92.588 300.723,102.080 295.276,108.203 291.798 C 118.974 285.679,120.258 284.897,119.896 284.674 C 119.803 284.617,113.375 284.616,105.612 284.673 M124.609 284.640 C 124.609 284.840,128.960 287.482,134.277 290.512 C 139.595 293.541,146.143 297.290,148.828 298.843 C 159.409 304.960,169.150 310.531,170.316 311.135 C 171.358 311.673,170.589 310.365,165.221 302.467 C 161.744 297.350,157.644 291.279,156.110 288.974 L 153.320 284.785 140.186 284.775 C 132.961 284.770,126.501 284.656,125.830 284.521 C 125.159 284.387,124.609 284.441,124.609 284.640 M186.324 297.168 C 181.739 303.989,177.664 309.993,177.270 310.509 C 176.248 311.845,176.636 311.929,178.471 310.770 C 179.346 310.218,180.157 309.766,180.273 309.766 C 180.389 309.766,181.140 309.352,181.941 308.847 C 183.313 307.982,197.171 299.996,215.234 289.661 C 219.639 287.141,223.315 285.009,223.405 284.922 C 223.494 284.836,217.063 284.766,209.114 284.766 L 194.660 284.766 186.324 297.168 M229.906 286.165 C 231.182 286.934,235.215 289.249,238.867 291.309 C 248.726 296.869,260.281 303.508,267.773 307.917 C 271.426 310.066,274.578 311.919,274.778 312.034 C 274.978 312.149,273.341 309.620,271.141 306.414 C 268.941 303.209,264.735 297.028,261.793 292.680 L 256.445 284.774 242.015 284.770 L 227.585 284.766 229.906 286.165 M119.119 286.638 C 118.164 287.238,113.076 290.167,107.813 293.147 C 102.549 296.127,95.166 300.354,91.406 302.541 C 87.646 304.728,82.158 307.907,79.209 309.606 C 73.069 313.144,72.966 313.257,76.270 312.838 C 78.552 312.549,81.460 312.291,100.000 310.733 C 103.975 310.399,107.280 309.973,107.345 309.786 C 107.443 309.504,116.872 292.900,120.166 287.207 C 120.694 286.294,121.066 285.547,120.991 285.547 C 120.917 285.547,120.075 286.038,119.119 286.638 M125.087 287.891 C 126.942 291.219,137.035 309.032,137.437 309.689 C 137.657 310.047,140.516 310.421,147.097 310.953 C 152.239 311.368,159.578 311.991,163.408 312.336 C 167.237 312.681,170.450 312.884,170.547 312.786 C 170.717 312.616,166.393 310.096,137.695 293.633 C 130.605 289.566,124.550 286.039,124.238 285.795 C 123.926 285.551,124.308 286.494,125.087 287.891 M221.289 287.304 C 219.785 288.211,213.545 291.818,207.422 295.319 C 174.800 313.972,176.258 313.050,179.886 312.743 C 204.005 310.707,210.351 310.111,210.565 309.864 C 210.782 309.615,213.525 304.798,222.721 288.520 C 224.575 285.239,224.633 285.288,221.289 287.304 M227.777 286.816 C 229.537 290.171,240.430 309.282,240.824 309.705 C 241.157 310.063,243.962 310.457,249.660 310.946 C 254.251 311.341,261.388 311.955,265.519 312.312 C 269.650 312.669,273.242 312.891,273.502 312.804 C 273.761 312.718,270.820 310.826,266.967 308.601 C 263.114 306.376,258.115 303.475,255.859 302.156 C 253.604 300.836,248.682 298.019,244.922 295.895 C 241.162 293.772,235.745 290.662,232.884 288.986 C 227.052 285.569,227.143 285.608,227.777 286.816 M116.406 295.624 C 113.506 300.698,110.394 306.186,109.491 307.818 L 107.849 310.786 112.530 320.920 C 115.104 326.494,118.215 333.214,119.445 335.852 L 121.680 340.650 121.782 326.937 C 121.839 319.395,121.839 307.188,121.782 299.811 L 121.680 286.397 116.406 295.624 M122.981 313.379 L 123.111 340.430 124.245 337.961 C 126.030 334.076,129.503 326.622,133.262 318.607 C 135.163 314.554,136.719 311.033,136.719 310.784 C 136.719 310.534,133.730 305.082,130.078 298.667 C 126.426 292.253,123.438 286.852,123.438 286.666 C 123.438 286.480,123.306 286.328,123.145 286.328 C 122.983 286.328,122.910 298.501,122.981 313.379 M226.180 313.184 C 226.176 328.062,226.254 340.234,226.355 340.234 C 226.561 340.234,227.222 338.849,234.638 322.852 C 237.527 316.621,239.915 311.251,239.944 310.919 C 239.974 310.586,237.392 305.752,234.207 300.177 C 231.021 294.601,227.914 289.160,227.302 288.086 L 226.189 286.133 226.180 313.184 M218.032 298.721 L 211.260 310.603 213.318 315.165 C 214.449 317.674,217.110 323.418,219.230 327.930 C 221.350 332.441,223.450 336.968,223.895 337.988 C 224.341 339.009,224.858 339.844,225.045 339.844 C 225.451 339.844,225.491 287.886,225.086 287.267 C 224.928 287.026,221.831 292.056,218.032 298.721 M98.633 311.779 C 96.484 311.968,89.980 312.560,84.180 313.094 C 78.379 313.628,73.378 314.064,73.066 314.063 C 72.715 314.063,72.641 314.197,72.871 314.417 C 73.515 315.031,120.873 342.188,121.301 342.188 C 121.408 342.188,120.988 341.177,120.368 339.941 C 119.748 338.706,117.265 333.389,114.851 328.125 C 112.437 322.861,109.701 316.929,108.771 314.941 L 107.081 311.328 104.810 311.382 C 103.561 311.412,100.781 311.591,98.633 311.779 M132.539 322.313 C 129.721 328.410,126.673 335.068,125.765 337.109 C 124.858 339.150,123.938 341.044,123.721 341.318 C 122.583 342.754,123.806 342.079,158.203 322.303 C 173.285 313.632,172.426 314.230,170.244 313.920 C 168.346 313.651,147.622 311.893,141.586 311.490 L 137.663 311.228 132.539 322.313 M200.000 311.951 C 196.885 312.237,190.297 312.839,185.361 313.290 C 180.425 313.740,176.324 314.171,176.249 314.246 C 176.173 314.322,177.399 315.126,178.974 316.034 C 180.548 316.943,183.242 318.512,184.961 319.522 C 196.446 326.270,224.365 342.171,224.498 342.039 C 224.562 341.975,223.277 339.037,221.642 335.512 C 220.006 331.986,217.304 326.113,215.636 322.461 C 213.968 318.809,212.120 314.810,211.529 313.574 L 210.455 311.328 208.060 311.380 C 206.742 311.409,203.115 311.666,200.000 311.951 M240.685 312.012 C 240.488 312.388,238.881 315.859,237.114 319.727 C 234.261 325.967,232.681 329.397,228.167 339.144 C 226.674 342.367,226.673 342.320,228.223 341.441 C 231.292 339.699,246.225 331.109,258.984 323.746 C 266.611 319.344,273.439 315.440,274.157 315.069 C 275.936 314.152,276.065 314.186,268.154 313.486 C 240.939 311.079,241.167 311.092,240.685 312.012 M387.195 383.608 C 387.565 384.257,388.399 385.091,389.048 385.461 C 389.698 385.830,390.229 386.221,390.229 386.328 C 390.229 386.436,389.698 386.826,389.048 387.195 C 388.399 387.565,387.565 388.399,387.195 389.048 C 386.826 389.698,386.436 390.229,386.328 390.229 C 386.221 390.229,385.830 389.698,385.461 389.048 C 385.091 388.399,384.257 387.565,383.608 387.195 C 382.958 386.826,382.427 386.436,382.427 386.328 C 382.427 386.221,382.958 385.830,383.608 385.461 C 384.257 385.091,385.091 384.257,385.461 383.608 C 385.830 382.958,386.221 382.427,386.328 382.427 C 386.436 382.427,386.826 382.958,387.195 383.608 " stroke="none" fill="#050404" fill-rule="evenodd"></path></g></svg>